<svg xmlns="http://www.w3.org/2000/svg" width="100%" viewBox="0 0 520 479" height="150" xmlns:v="https://vecta.io/nano"><style><![CDATA[.B{fill:#d1d1d2}.C{fill:#d7d5d7}.D{fill:#91918f}.E{fill:#dadada}.F{fill:#a3a0a1}.G{fill:#e2e2e3}.H{fill:#8f9394}.I{fill:#959697}.J{fill:#a7b9b8}.K{fill:#9d9d9d}.L{fill:silver}.M{fill:#cacaca}.N{fill:#ddeef7}.O{fill:#b6c1c1}.P{fill:#6c6c6c}.Q{fill:#b0b0b0}.R{fill:#ced4d4}.S{fill:#bed5d2}.T{fill:#dbebf4}.U{fill:#8e9394}.V{fill:#8b9296}.W{fill:#545354}.X{fill:#bab8b9}.Y{fill:#121212}.Z{fill:#f3f2f3}.a{fill:#5a7f79}.b{fill:#a4a8a7}]]></style><path fill="#0d0d0d" d="M1 166L.909 5.04C.901 1.706 1.451.898 4.958.9L516.83.887c3.826-.003 4.25 1.056 4.248 4.441l.01 470.382c.002 3.494-.578 4.398-4.296 4.395-170.457-.121-340.915-.122-511.372.001-3.928.003-4.509-1.082-4.505-4.684L1 166z"/><path d="M187.663 403.05c3.269-2.175 6.496-3.94 9.545-5.97l18.165-12.442c1.102-.762.165-1.478-.297-2.01-3.459-3.976-2.493-10.102-5.454-13.572-2.766-3.241-.945-6.862-3.198-10.239-1.8-2.698-.365-8.671-1.091-13.059-.206-1.247 2.026-2.921-.241-3.549-1.806-.5-3.872-.736-5.687-.385-3.637.703-6.967-.973-10.563-.856-3.246.106-6.512-1.454-9.815-1.729-3.922-.326-7.513-1.643-11.234-2.659-5.653-1.543-11.574-2.845-16.737-5.19-4.844-2.2-10.44-2.932-14.61-6.334-2.449-1.998-5.114-3.524-7.875-4.67-8.414-3.491-14.846-9.725-21.892-15.112-8.986-6.87-16.136-15.592-24.009-23.597-2.833-2.88-4.091-6.461-6.683-9.363-7.698-8.619-12.571-19.305-17.068-29.561-3.7-8.439-7.24-17.747-7.735-27.408-.1-1.959-2.47-2.578-1.494-4.81-.444-1.964-.423-3.914 1.376-4.377 2.241-.576 2.863 2.111 4.543 3.519 2.662 5.911 3.939 11.938 5.761 17.76 2.863 9.148 6.984 17.539 11.547 25.885 4.554 8.329 9.049 16.573 15.221 23.903 20.941 24.873 46.523 42.66 77.96 51.523 10.858 3.061 21.704 6.48 33.196 6.367 1.124-.011 2.318.417 3.53-.773-4.963-1.836-10.056-2.538-14.981-3.693-21.173-4.964-39.213-15.354-54.527-30.622-2.005-2-4.935-3.68-4.039-7.559 5.265-1.514 10.283-.804 15.641-.449.999 3.742-.234 4.518-4.352 3.304 10.62 10.439 23.311 17.831 37.28 23.523 14.163 5.771 28.94 6.706 44.184 7.507 1.017.048 1.691.142 2.698-.053.56-.043.785-.048 1.344-.025 1.84.286 3.351.627 5.067-.437 4.35-2.285 8.974-1.982 13.299-3.07 13.597-3.421 25.949-9.158 37.423-17.097 3.374-2.335 5.751-5.504 8.481-8.406 1.935-2.057 3.962-4.088 7.284-4.576 2.158 2.234.587 3.648-.798 5.091-1.913 1.993-4.295 3.681-4.383 7.187-.405 2.504-1.972 3.921-3.675 4.811-3.736 1.952-5.53 5.022-6.288 9.319-.629 1.779-1.675 2.825-2.795 3.797-1.852 1.606.553 1.611 1.066 2.719.752 1.873.689 3.403-.169 5.25-1.745 1.658-3.67 1.924-5.403 1.409-4.31-1.279-8.115.061-12.106 1.439-14.857 5.129-30.031 8.732-45.873 8.916-5.207.061-5.512.648-4.411 6.955.137 1.649-.087 2.98.645 4.493l.481 1.128c.406.994.606 1.784 1.845 1.968 8.855-2.298 17.416-4.368 26.697-4.554 3.288.612 6.189 1.141 9.379 2.194 2.916 1.378 5.573 2.343 7.898 4.043 6.873 5.025 8.712 11.506 5.332 19.28-4.576 10.525-4.576 10.525 5.391 15.545 5.496 2.768 7.586 7.846 5.676 13.793-1.062 3.305-2.623 3.713-6.65 1.365-.629-1.93-.48-3.561-.415-5.191-.178 1.985.025 3.98-.244 6.316-.398.803-.784 1.114-1.662 1.197-2.068-4.141-8.154-12.045-12.08-15.336-2.829-2.371-3.963-5.295-2.684-8.899 1.673-4.716 3.06-9.496 3.614-14.857.711-1.826 1.917-.6 2.751-.96-1.405-1.616-.865-4.693-4.194-5.188-10.305-8.628-21.359-5.035-32.158-2.67-3.875.849-5.258 4.38-4.321 8.856 1.502 7.172 5.394 13.175 9.422 19.135 5.513 8.157 11.969 15.329 19.579 21.672 7.371 6.145 9.558 6.634 17.465.371.478-.354.674-.489 1.501-.932 2.496-1.058 4.468-2.002 5.945.202 1.502 2.241.111 4.118-1.199 5.832-1.96 2.565-5.18 4.868-.917 8.432 2.089 1.348 4.177 1.911 6.352 2.954.539.151 1.156.824.813-.494-.246-.716-.34-1.154-.465-1.971-.378-9.608 2.127-18.284 6.612-26.102 3.994-6.963 10.462-10.939 18.956-10.751 8.56.189 9.095-.262 11.349-8.399 1.445-5.217 3.756-7.157 9.131-7.552 9.368-.688 17.379 2.251 23.666 9.293 4.013 4.495 3.447 10.795-1.449 15.071-3.399.155-3.671-1.956-3.996-4.24-1.156-8.108-7.261-13.114-15.54-13.067-2.858.016-4.081 1.33-4.748 3.998-2.663 10.646-5.44 12.796-16.166 12.944-7.915.109-12.567 3.698-15.871 10.898-2.449 5.338-3.127 10.664-2.525 16.665-1.548 3.098-.462 4.783 2.572 5.923 7.803 3.866 15.727 3.739 23.709 2.88 5.122-.551 10.224-.98 15.709.162 1.118.682 1.386 1.323.671 2.44-3.778 1.903-2.643 6.374-5.585 8.681-1.876-.673-.844-2.091-1.103-3.575-2.639-1.859-5.481-.775-8.564-.867-5.041.113-9.63.738-14.458.102-6.76-.891-13.217-2.81-19.856-3.984-3.008-.532-3.451 2.956-4.928 4.609-3.214 3.597-5.598 7.876-10.097 10.316-2.886 1.565-2.884 5.713-6.147 7.778-.716-1.164-.651-2.78-1.777-4.4-.746-6.759.237-8.158 5.578-10.869 2.963-1.504 4.998-4.326 6.737-7.157 1.285-2.093-.466-3.135-1.996-3.718-2.251-.857-4.849-3.739-6.969-.365-2.462 3.919-4.438 8.159-6.51 12.319-.694 1.394-.151 2.605.97 3.539 1.61 1.341 1.761 3.088 1.452 5.323-5.055.476-9.027-1.942-13.075-5.036-.273-.766-.517-1.57-.312-1.708 2.949-1.985 2.894-4.353 5.474-8.502 2.07-3.329 3.689-6.988 5.992-10.197 1.019-1.42 1.36-3.358-.509-3.892-3.112-.89-4.359-5.598-8.526-4.017-.786-2.758-2.655-4.76-4.827-6.421-4.195-3.209-7.301-7.486-11.356-11.247-2.24 3.449-5.853 4.531-9.466 6.001-4.842 1.971-9.437 4.333-14.551 5.861-4.039 1.207-5.955 6.438-10.35 8.727-.698-.309-1.097-.97-1.337-2.107-.08-7.801-.08-7.801-5.553-8.827-1.765-.138-2.623-.924-3.111-2.608-.119-.857-.115-1.349.014-2.189.147-.569.225-.788.465-1.307 1.125-1.689 2.659-2.66 3.273-4.682z" class="H"/><path d="M228.781 17.779c5.797-.297 11.006 1.039 16.152 2.494 8.518 2.409 17.179 4.512 25.398 7.722 7.293 2.849 14.124 6.919 21.054 10.646 10.829 5.823 19.699 14.215 29.141 21.931 5.406 4.418 9.786 9.276 13.569 14.923 1.342 2.003 2.306 2.308 4.402.356 3.583-3.337 6.751-7.099 10.045-10.636 2.813-3.021 5.859-5.672 8.722-8.554 2.37-2.386 1.217-6.739 3.522-9.821 2.33-3.117 2.047-7.97 7.822-8.596 2.704-.293 4.748 1.074 7.373.844 4.768-.418 8.089 4.595 7.202 9.572-.173.968-.109 1.978-.467 3.179-.961.459-1.209.996-1.51 1.874-5.109 3.787-9.614 7.92-16.654 6.554-3.639-.707-6.163 2.785-8.404 5.053-4.874 4.934-8.947 10.654-13.771 15.643-1.755 1.815-1.472 2.984-.371 4.406 5.692 7.35 10.475 15.293 14.08 23.801l8.529 20.498c1.761 4.282 2.274 8.798 3.257 12.879 1.704 7.076 4.081 14.367 3.215 21.989-.217 1.907.537 3.923.809 6.225-.668 1.374-.333 2.505-.177 3.889.175.286.348.673.337.885.103.462.217.712.159 1.337-.173.375-.166.82-.261 1.021-.346.579-.461.993-.255 1.737.162.29.353.687.349.907.11.468.225.716.166 1.336-.173.372-.157.802-.242.999-.188.346-.289.494-.23.858.161.216.336.586.322.79.098.479.21.755.16 1.445-.163.415-.022.598-.018.714-.467.661-.423.981.601 1.144-2.075 3.536-1.426 7.537-2.132 11.234-1.454 7.616-2.779 15.26-3.949 22.925-.272 1.782-1.877 2.67-2.006 4.575-.334 4.95-2.103 9.456-4.475 13.882-2.027 3.781.088 7.903 4.312 7.88 2.411-.013 1.18 1.951 2.409 2.339-2.734 2.962 1.836 4.136 1.033 6.591-6.84 1.694-11.405 4.977-11.94 12.412-.279 3.878.103 7.268 3.367 9.876 1.597 1.276 2.868 2.841 2.128 5.496-3.315 3.48-5.92 1.126-8.883-.77-2.426-2.72-4.452-5.252-5.64-8.752-1.881-3.506-.539-6.523.382-9.911.127-.805.294-1.209.592-1.569.119-.143.131-.312.161-.421.049-.174.005-.04-.356.668-.772 5.003-4.068 8.258-6.735 11.743-3.909 5.108-7.692 10.36-12.431 14.781-1.725 1.609-2.288 3.16-1.421 5.673 1.454 4.214-.205 5.525-5.021 4.007-.446-.384-.613-.55-.995-.995a5.82 5.82 0 0 1-.886-1.856c-.117-2.02.194-3.751-.687-5.69.406-3.225 2.811-4.7 4.594-6.606 8.674-9.273 16.026-19.494 21.902-30.741 2.918-5.585 2.115-7.127-3.894-8.938-3.801-1.146-7.779-1.834-11.341-4.475-.565-3.712.627-7.026.426-10.452-.104-1.764 1.042-2.628 3.187-2.332.615.321 1.009.58.981.842-.658 6.266 4.12 6.891 8.349 8.08.641.18 1.306.32 1.967.311 2.29-.032 4.086 3.196 6.43 1.413 2.162-1.644 2.718-4.532 3.566-7.015 3.713-10.862 6.79-21.889 7.879-33.376.127-1.335.422-2.623.996-4.191.886-1.874 1.155-3.501.655-5.524-.158-.52-.215-.732-.34-1.273a15.36 15.36 0 0 1-.197-1.347 16.17 16.17 0 0 1-.039-1.403c.031-.595.052-.835.124-1.435.096-.604.142-.846.268-1.452.643-5.171.583-9.979-.029-15.157-.197-.622-.265-.875-.391-1.519-.128-1.176-.14-1.964-.178-3.141.559-5.62-1.406-10.492-2.253-15.885-.498-2.65-1.411-4.782-2.364-7.266-5.659-15.613-10.771-30.983-20.022-44.727-16.757-24.895-38.308-43.865-65.58-56.458-18.15-8.381-37.229-12.885-57.378-14.828-3.924-1.002-7.54-.639-11.835-.212-.916.285-1.147.347-1.725.49-15.348.775-29.966 3.527-44.212 8.257-19.522 6.482-36.973 16.81-52.176 30.416C95.447 72.343 84.277 83.364 76.728 97.75c10.821-4.589 17.143-13.429 23.687-22.133 2.901-3.859 3.518-9.065 7.864-12.338 1.291-.488 2.274-.517 3.636-.259.59.223.814.343 1.307.736.531.714.712 1.187.85 2.069.024.878-.031 1.374-.233 2.217-4.48 13.893-14.678 23.028-24.641 32.224-3.522 3.25-8.077 5.489-13.07 5.556-3.63.049-5.223 1.911-6.68 4.818-7.049 14.062-11.507 28.922-14.047 44.396-.243 1.481-.424 2.96-1.392 4.575-.353.461-.51.63-.942 1.006-1.745.746-2.814 1.984-4.612 2.437-1.664-1.608-1.801-2.997-.584-4.866.767-1.179.589-2.972.979-4.808-.242-.78-.378-1.306-.082-2.282.184-.384.133-.601.158-.709-.087-.362-.199-.615-.138-1.247.173-.378.152-.789.215-.985.313-.415.531-.662.843-1.151.823-7.394 2.94-14.398 5.356-20.976 2.676-7.285 5.068-14.92 9.632-21.509 2.603-3.758 3.327-8.59 6.788-12.006 1.251-1.235-.116-3.084-1.455-3.646-3.057-1.284-6.497-3.795-7.766-5.52-3.558-4.838-9.647-7.032-12.278-12.949-.271-.498-.413-.661-.763-1.073-.263-.407-.319-.564-.444-.962.02-.836.355-1.298.933-1.946.355-.322.509-.437.933-.654.461-.089.652-.077 1.108.046.265.112.183.187.146.146.496.513 1.25.845 1.782 1.812 7.563 3.019 11.558 9.813 17.144 14.716 4.458 3.913 3.926 3.891 7.595-.678 8.49-10.575 17.458-20.646 28.268-29.114 3.738-2.928 7.772-6.359 11.476-8.738 8.403-5.397 17.091-10.725 26.719-14.406 6.506-2.488 13.096-4.521 19.695-6.6 9.194-2.897 18.543-4.767 28.247-5.413 9.412-.627 18.796-.238 28.658-.452 2.558.605 4.708.229 7.161.697z" class="I"/><path d="M322.848 446.242c1.185-2.946.766-6.61 3.882-9.088 1.178.689.553 2.248 1.998 3.149 1.586 4.381 5.294 5.74 8.8 6.232 8.999 1.262 17.887 3.834 27.208 2.088 7.478-1.401 13.426-4.934 19.223-9.801 8.74-7.339 13.257-16.34 14.272-27.481.422-4.637.127-8.988-3.182-13.024-1.102-1.1-2.007-1.877-3.12-2.951-.597-3.88 1.697-6.507 3.298-9.743 1.666-3.871 4.86-7.404.286-11.412-1.107-1.518-2.108-2.718-2.417-4.628-.018-.535-.008-.749.047-1.275.118-.729.198-1.143.283-1.874-.135-1.425-.254-2.528.695-3.755 1.135-.728 2.066-.769 3.367-.446 1.207.613 1.734 1.42 2.482 2.486.917 1.146 1.003 2.789 2.212 2.861.709.042.342-1.382.566-2.49 2.328-3.326 3.54-6.691 3.863-10.385.627-7.185 2.508-14.305 1.071-21.966-.182-1.101-.186-1.846-.453-2.92a20.08 20.08 0 0 1-.367-1.415c-.276-1.793-.225-3.242-.313-5.037-.28-2.83-.95-5.237-1.275-7.707-.497-3.769-2.177-6.586-6.475-7.636-.938-2.058.141-3.576.799-4.927 2.363-4.851.117-9.903 1.276-15.025 5.045.439 4.248 4.92 5.001 7.688.947 3.483 2.597 6.695 3.418 10.242.777 3.352 5.633 4.505 9.061 3.06 3.113-1.312 5.941-3.028 8.658-5.021 1.719-1.261 2.571-2.666 2.274-4.94.582-.261.874-.428.957-.868-.183-.385-.202-.573-.149-1.036 1.073-1.958 2.248-3.577 2.106-6.033.289-.784.616-1.44.994-1.405 4.436.411 6.118-2.856 8.219-6.126 1.017-1.291 1.754-2.367 2.536-3.81a2.72 2.72 0 0 1 .952-.871c.999.02 2.473-.172 1.752.965-1.129 1.779-.712 3.548-.626 5.297.222 4.557.306 4.56-4.409 7.204-3.212 1.801-3.148 4.906-2.502 7.712 1.604 6.968-1.273 13.961-7.329 16.781-5.252 2.446-13.628 3.565-19.167 2.563 1.36 7.435 2.163 14.906 1.434 22.854.108.644.22.908.162 1.568-.17.396-.139.805-.226.99-.884 1.578-.379 3.075-.262 4.792-2.071 7.441-.965 11.187 4.546 15.908 5.455 4.673 11.218 8.846 18.113 11.094 4.114 1.341 6.574 5.116 10.678 6.994-.162 1.162-.931 1.548-1.979 2.075-.479.207-.672.283-1.152.468-.474.181-.662.254-1.115.47-.434.257-.602.371-1.011.673-1.061 1.21-.526 2.192.157 2.832 4.118 3.856 3.408 8.208 1.22 12.957-4.944-1.824-10.207-2.685-14.091-6.4-3.437-3.288-7.964-3.743-12.144-5.287-3.383-1.249-7.41-2.791-10.009-5.849-1.659-1.952-2.291-1.491-3.41.434-1.808 3.114-5.738 5.74-1.929 9.846 2.795 3.014 3.079 6.596 2.596 10.695.634 1.05.181 2.071.67 3.179.252.24.157.231.408.909-.474 4.467-1.963 8.043-3.052 12.119.349 2.413-1.254 3.585-2.1 5.133-1.767 3.233-.469 5.865 2.949 5.892 5.042.039 6.643 2.251 5.842 6.737-.455 2.548-7.148 4.933-10.096 3.992-2.81-.898-5.328-1.998-6.312-5.322-3.354 4.02-6.891 7.524-11.052 10.424-1.356.945-2.086 2.53-.447 4.445 2.291 2.677.732 5.641-.636 8.059-1.207 2.134-3.296 3.584-6.227 2.922-3.146-.711-4.704-2.084-4.364-5.705.149-1.584 1.084-4.036-3.674-4.137-5.827-.124-11.742 1.024-18.554-.53 2.96 2.872 7.158 4.335 4.561 8.633-2.331 3.856-5.456 6.527-10.32 6.637-2.069.047-4.169-.595-4.498-2.28s-2.454-3.883.453-5.763c1.138-.736 1.325-2.845 2.115-4.232 2.023-3.553.458-4.821-3.012-4.761-2.76.047-4.916-2.289-7.804-1.768-1.078.195-1.167-.916-1.607-1.877-2.166-.165-3.408-1.042-4.301-3.01-.26-.232-.223-.073-.296-.036z" class="D"/><path fill="#66817d" d="M401.155 287.849c-.566 2.187.566 4.198 1.043 6.185 1.198 4.99-.915 8.956-3.172 13.365-1.478 3.255-4.236 3.067-6.779 3.232-2.421.157-4.852.06-7.711.005a14.19 14.19 0 0 1-1.69-.2 7.63 7.63 0 0 1-1.555-.514c-1.762-1.476-2.865-3.081-4.809-3.776-1.006-.359-2.128-1.081-.818-2.747 5.113-1.343 9.819.48 14.638.209 7.078-.399 9.79-4.846 6.388-11.38-6.064-11.646-14.462-21.413-24.4-29.91-1.63-1.394-3.521-2.551-4.194-5.152-.659-1.369-1.597-1.885-2.755-2.157-1.153-.27-2.256-.867-2.045-2.252.251-1.644 1.654-1.732 3.367-1.749 1.1-.016 1.598-1.992 2.561-.176 1.249 2.355 2.651 4.471 6.002 3.367 1.075-.354 1.805.674 1.621 1.756-.28 1.654 1.014 2.366 1.916 2.918 5.175 3.169 7.705 8.663 11.968 13.062 4.153 2.638 5.523 6.902 8.021 10.766.192.28.349.591.342.765.514 1.458.421 2.982 1.791 4.248.289.2.243.155.268.135z"/><path fill="#464646" d="M255.871 454.757c4.811.154 3.079 2.7 1.9 5.521-.37.902-.557 1.227-.8 1.692-.521 5.19-4.59 7.901-7.628 11.687-.242.248-.601.391-.794.377-.427.095-.661.204-1.253.167-.359-.146-.305-.199-.318-.164-.394-.468-.913-.554-1.704-.267-.679.217-1.147.251-1.965.241-1.073-.879-2.067-1.28-3.322-1.865-.571-.058-.861-.025-1.373-.081-.48.076-.743.19-1.354.051-.348-.254-.402-.467-.328-.548-4.793-4.967-2.606-9.484.933-14.286.717-2.937 2.454-4.794 4.194-7.032 2.121-.456 4.378-1.178 5.342 1.745.353 1.071 1.655 1.279 2.553 1.052 2.481-.628 3.501 1.387 5.185 2.151.293-.446.44-.564.733-.44z"/><path fill="#939193" d="M31.828 54.076c.262-3.102 1.314-6.729 3.757-6.928 3.356-.274 7.124-1.273 10.586 1.942 4.679 4.345 4.389 9.577 4.745 15.232.192.502.297.711.305 1.255-.098.336-.268.51-.348.601-.664.864-2.726-1.278-2.628 1.523-2.259.649.148 3.082-2.209 3.918-6.121 2.173-10.919 1.768-13.928-5.134-.718-3.117-.506-5.975-.825-9.122-.179-.31-.341-.681-.345-.884-.1-.436-.196-.669-.167-1.259.125-.357.191-.318.17-.286.266-.158.519-.386.888-.86z"/><path d="M454.792 386.115c7.343.856 9.534 5.513 5.53 11.345-2.674 3.894-5.505 7.697-8.534 11.317-.679.811-2.704 2.362-3.454-.637-.783-3.132-5.216-.943-5.855-4.205 4.261-1.335 2.486-5.838 5.101-8.153a4.86 4.86 0 0 1 1.843-.951c2.341-.238 4.891.605 4.11-3.291-.308-1.539.397-3.501 1.258-5.426z" class="D"/><path fill="#383838" d="M184.72 409.855c.494 1.187.208 2.496 2.017 2.756 6.024-.188 4.933 5.069 6.909 8.276.15 1.265.118 2.244.051 3.717-.036.494-.095.455-.115.436-4.157.545-7.911 3.29-12.705 2.029-1.117-.474-1.761-.98-2.093-1.764-.998-2.352.679-3.903 1.512-5.817.488-1.121-2.792-.731-2.386-3.077.366-2.116.772-4.154 1.791-6.413-.181-1.089.39-1.223 1.045-1.625.331-.332.499-.454.98-.571 1.341.334 2.083 1.058 2.995 2.053z"/><path d="M179.386 409.762c1.458 2.722-.797 5.492-.034 8.352 2.434-.216 1.375-4.944 3.832-3.288 1.932 1.302-1.286 3.193-1.618 5.009-.358 1.96-3.439 3.033-1.69 5.936.26.47.401.622.579 1.085-.071 1.155-.366 1.918-1.163 2.78-.668.297-1.126.366-1.933.407-.833-.52-1.32-1.009-2.045-1.749-.655-1.477-2.49-1.815-2.173-3.776.193-.653.394-.878.682-1.007.425-.19 1.21-.606 1.116-.69-.59-.528-.787.545-1.637.31-.611-.591-.93-1.029-1.277-1.748-.241-.545-.463-.803-.901-1.202-.207-.149-.134-.171-.156-.14-.662-2.139-1.866-4.326.539-6.649 2.967-.841 4.7-3.332 7.878-3.63z" class="P"/><path d="M47.276 187.244c.021-4.292-.961-8.363-.073-12.842 1.035-1.477 2.254-1.68 3.96-1.322 2.033 1.118 2.482 2.618 1.996 4.751-.311.788-1.002 1.09-.54 2.044.193.463.263.654.415 1.147.124.507.165.714.255 1.236.19 1.602.316 2.89.209 4.508a53.69 53.69 0 0 1-.331 2.517c-.113.506-.173.703-.374 1.174-.002.712-1.292.424-.403 1.405.351.651.448 1.065.468 1.826a3.48 3.48 0 0 1-.401 1.267c-.368.426-.552.565-1.056.834-1.264.34-2.165.291-3.279-.47-.296-.181-.264-.319-.194-.312-.357-.435-.405-1.038-.809-1.778-.212-.199-.138-.214-.155-.18-.117-.2-.217-.433-.162-1.015.156-.348.072-.531.111-.623-.074-.36-.187-.627-.127-1.294.173-.399.137-.82.235-1.007.2-.328.303-.468.436-.869.006-.432-.018-.604-.181-.998z" class="H"/><path d="M455.014 385.907c-.113 1.89 2.109 3.638-.271 5.863-1.489 1.392 1.865 2.742 1.702 4.708l-6.264-.407c-2.375-3.573-6.561-5.819-6.576-10.819 1.086-.597 2.017-.859 3.303-1.199.357-.078.757-.105.949-.046 1.657 1.149 2.568 2.565 2.877 4.605.143.144.092.126-.061-.179-.28-1.428-.351-2.566 1.144-3.434.733-.115 1.129-.119 1.82-.091.521.286.76.528 1.218.906.208.147.14.126.159.095z" class="W"/><path d="M406.757 410.23c.227-.172.624-.26.827-.271.566-.248.837-.566 1.312-1.104.281-.152.53-.029.665.004.403-.06.67-.153 1.34-.107.402.139.768.175.942.235.615.515 1.235.505 2.06.781.277.099.169.156.199.102.542 1.112.999 2.296 1.089 3.911-.162 1.226-.185 2.097-.483 3.149-.676.248-1.029.413-1.478.949-.149.26-.036.195-.005.253-.32.077-.617.209-1.034.652-1.615-.483-.211 3.631-2.773 1.397-.609.114-.855.441-1.312.964-.276.145-.544-.003-.694-.031-4.233.7-3.842-2.049-2.665-4.014 1.246-2.081.674-3.651.143-5.789l.109-.308c.387-.508.993-.47 1.76-.773z" class="D"/><path fill="#8b8b8b" d="M428.754 291.282c-.354-.169-.571.166-.571.166s-.399-.011-.497-.184c-.398-.082-.698.01-1.44-.061-2.337-4.296-.56-7.868 1.503-11.721.112-.499.004-.707.035-1.237.139-.323.22-.256.178-.285 2.319-1.319 4.301-1.149 5.824 1.822.573 4.473-.135 8.227-3.554 11.439-.601.208-.862.219-1.477.061z"/><path d="M448.24 395.635c.172 2.29-1.209 3.82-.601 6.152.871 3.338-2.501 1.56-4.435 1.995-.411-.047-.391-.247-.332-.328.184-1.882-.777-3.471.609-5.549 1.795-2.694-.966-4.744-2.748-6.643-1.844-1.966-3.755-3.928.884-5.3 3.371 2.511 5.298 5.714 6.624 9.673z" class="W"/><path d="M47.951 195.344c.994-.249 2.114-.291 3.653-.332 4.815 4.314 4.096 9.87 3.946 15.552-2.067-.427-2.873-2.301-4.4-3.868-.437 1.109-.788 2.002-1.195 3.227-1.241-.719-2.117-1.735-1.267-3.564.86-1.852.394-3.786-.463-5.964 1.088-1.449 1.378-2.593.24-4.136-.187-.267-.388-.708-.513-.916z" class="I"/><path fill="#a3a2a3" d="M237.677 457.112c.67.902 1.714 2.484.725 3.051-5.246 3.01-3.205 6.724-1.373 10.916-2.786-.329-3.144-3.974-6.033-4.556.375-1.43-2.146-3.58 1.2-4.302 2.637-.569 2.069-4.699 5.48-5.109z"/><path fill="#8b8b8b" d="M180.113 427.346c-.082-.31-.079-.785-.098-1.021 4.444.852 8.434-2.237 13.191-1.496-3.397 2.39-6.338 5.965-11.051 6.509-.864-1.37-1.442-2.51-2.042-3.992z"/><path d="M48.049 163.201c1.231-1.147 1.527-3.045 3.74-3.14 1.598 1.321 1.619 2.96 1.417 5.041-.277 1.427-.67 2.413-.796 3.859-.458 2.687-.199 5.861-4.393 3.363l-1.012-2.125c-.147-.732-.133-1.106-.135-1.761.07-.863.103-1.447.006-2.325-.042-.29-.027-.573.029-.703-.071-.393-.197-.657-.032-1.247.659-.267.927-.404 1.177-.963z" class="H"/><path d="M404.712 411.215c1.953 1.924 6.285 3.758.772 6.624-1.081.562-.586 2.443 1.422 3.144-.371 2.755-3.551-.806-4.558 2.03-.571-4 .029-7.934 2.365-11.798z" class="F"/><path fill="#bad3d0" d="M398.977 282.58c-4.025-1.937-5.096-6.513-7.883-10.144 6.043.315 7.188 4.864 7.883 10.144z"/><path d="M249.456 473.941c1.132-2.62 1.712-5.809 4.923-7.207 1.762-.767 1.482-2.758 2.227-4.456.736 5.461-2.312 9.01-7.151 11.663z" class="K"/><path d="M322.888 446.43c1.294.459 2.591 1.301 4.062 2.431.006.561-.162.837-.332 1.11-.914 1.464-1.421 3.446-3.363 3.746-.538.083-1.545-1.245-1.927-2.108-.869-1.958-.056-3.552 1.561-5.179z" class="L"/><g class="D"><path d="M434.877 279.488c-.688-2.484 1.83-3.173 2.186-5.205.613-.976 1.3-1.144 2.41-1.042a2.48 2.48 0 0 1 1.104.869c.86 2.472.385 4.567-.412 6.94-1.722 1.048-3.096.562-4.744-.35-.42-.44-.546-.652-.544-1.213z"/><path d="M442.606 270.772c1.75 2.427 2.611 4.837 2.746 7.756-.14.304-.439.547-.589.669-4.115.752-3.265-2.771-4.537-4.949l-.882-.847c-.264-2.365.924-3.071 3.262-2.629z"/></g><path d="M428.459 291.502c.238-.425.535-.461 1.272-.584 1.176-.666 1.962-.676 3.018.052 1.324 2.873 1.734 5.121-2.272 5.811-.5-1.656-.345-3.564-2.017-5.28z" class="X"/><path d="M434.65 279.017c.355.122.201.467.22.654-.091.968-.582 1.382-1.586 1.363-.599-2.937-2.285-3.434-4.994-2.982.616-2.464 2.789-2.815 4.798-2.618 2.164.212.044 2.536 1.562 3.583z" class="C"/><path d="M442.852 270.587c-1.119.805-2.655.576-3.54 2.343-.646.538-1.113.797-1.861 1.025-1.162-4.117-1.054-4.189 5.401-3.368z" class="B"/><path fill="#383838" d="M173.04 423.286c1.64-.637-.232-4.261 2.714-3.312 1.339.432 1.394 1.7 1.327 2.908-.146 2.634-1.792 1.662-3.516 1.318-.393-.206-.445-.406-.525-.914z"/><path d="M171.524 413.101c-.931 1.986-.774 4.073-.445 6.582-1.343-1.995-5.268-4.467.445-6.582z" class="L"/><path d="M182.118 408.887c-.58-.128-.712-.241-1.027-.538 1.806-2.188 3.795-4.191 5.98-5.912 1.252 2.502-.806 3.488-1.874 5.272l-.187.282c-.697.59-1.503.93-2.892.897z" class="H"/><path d="M31.074 57.47c1.203 2.299 1.337 5.157 1.034 8.383-3.115-2.146-.045-5.28-1.034-8.383z" class="L"/><path d="M47.558 170.687c.801.961 1.372 2.1 2.442 1.687 1.691-.652.831-2.59 1.603-4.258 1.826 1.239 2.008 3.123.587 5.533-1.639.345-2.9.343-4.54.344-.472-.717-.567-1.435-.726-2.511.063-.54.19-.723.634-.796z" class="I"/><path d="M451.911 384.611c-.162 1.404-.567 2.532-.925 4.007-.975-1.064-1.997-2.473-2.978-4.219 1.247-.245 2.454-.154 3.903.211z" class="D"/><path d="M48.22 196.392c1.431-.186 2.523.396 2.614 1.943.074 1.254-.855 1.547-2.214 1.662-.377-1.06-.417-2.133-.399-3.606z" class="H"/><path d="M179.769 427.226c2.459-.04 2.199 1.601 2.229 3.439-.761.012-1.516-.354-2.593-.76-.515-.915-.559-1.763.364-2.68z" class="Q"/><path d="M313.514 441.903c2.345-1.379 5.212-1.088 8.281-.064-2.489.273-5.163.182-8.281.064z" class="M"/><path d="M185.281 407.888c-.327-1.794 1.495-2.776 2.016-4.791-.029-.378.225-.305.356-.322 2.261 2.911-.66 3.608-2.372 5.113z" class="P"/><path d="M228.991 17.633c-2.037.268-4.211.187-6.642-.193 2.022-1.468 4.258-.524 6.642.193z" class="C"/><path d="M415.374 414.001c-.663-1.053-1.003-2.241-1.293-3.806 1.798.498 3.555 1.37 1.293 3.806z" class="F"/><path d="M48.228 68.002c-.959-2.422-.114-2.821 2.237-1.749.448 1.025-.106 1.513-1.31 1.804-.309.064-.723-.005-.927-.055z" class="B"/><path d="M401.126 287.559c-2.402.306-2.057-1.568-2.125-3.517 1.429.408 1.423 1.968 2.125 3.517z" class="D"/><path d="M413.936 349.534c-1.571-.911-.761-2.51-.299-4.251.288 1.139.309 2.492.299 4.251z" class="C"/><path d="M239.871 472.328c1.225-.754 2.222-.133 3.075 1.27-1.38.864-2.267.236-3.075-1.27z" class="K"/><path d="M371.921 174.55c-1.272-.601-.752-1.838-.289-3.245.257.813.287 1.837.289 3.245z" class="E"/><path d="M405.099 409.644c-.94-.165-1.125-1.054-1.08-2.396 3.116-.756 1.279.991 1.08 2.396z" class="F"/><path d="M175.02 428.42c1.118-.535 1.841-.13 2.081 1.257-1.051.398-2.214.797-2.081-1.257z" class="Q"/><path d="M46.563 165.981c1.52.21 1.233 1.025.576 2.021-1.276-.294-1.344-1.001-.576-2.021zm.441-2.412c.168.514.178.761.071 1.359-.7.142-1.285-.068-1.869-.279.284-.768.652-1.435 1.798-1.081z" class="G"/><path d="M53.972 67.63c-.56-.15-1.141-.668-1.849-1.451.66-.011 2.055-.641 1.849 1.451z" class="B"/><path d="M407.991 421.566c.077-.616.316-.955.848-1.417.074.541.809 1.717-.848 1.417zm-1.325-11.578c-.145.397-.608.724-1.372 1.034-.285-.2-.27-.384-.253-.845.437-.271.871-.266 1.625-.189zm7.363-.408c-.451.186-1.051.083-1.832-.275.441-.175 1.061-.094 1.832.275z" class="F"/><path d="M373.013 187.736c-.49-.122-1.968.655-1.125-.951.584.234.847.461 1.125.951z" class="E"/><path d="M46.937 193.355c.933-.394.987.302 1.063 1.318-.838.277-1.031-.283-1.063-1.318zm.831-22.78c-.061.282-.228.343-.652.477-.685-.152-1.33-.275-.514-1.093.58-.052.853.119 1.167.616z" class="G"/><path d="M381.352 53.918c-.589-.74-.405-1.361.691-1.826.119.564-.12 1.174-.691 1.826z" class="C"/><path d="M409.012 408.43c-.093.615-.351.956-.918 1.408.001-.513-.72-1.747.918-1.408z" class="F"/><path d="M371.885 179.613c-.721-.08-.633-.654-.213-1.392.204.276.22.682.213 1.392zM48.658 150.887c.364.343.436.86.421 1.776-1.354.062-1.3-.686-.421-1.776z" class="E"/><path d="M245.38 473.98c.023-1.25.709-1.263 1.591-.242-.428.313-.851.291-1.591.242zm1.6.395c.193-.415.427-.509 1.02-.479.061.644-.126 1.38-1.02.479z" class="K"/><path d="M411.162 408.606c-.126.323-.394.36-1.064.342-.101-.572.122-1.271 1.064-.342z" class="F"/><path d="M170.993 420.299c.269-.116.613.034.982.494-.286.13-.596-.049-.982-.494zM30.611 54.956c.346.142.409.376.396.966-.539.075-1.246-.086-.396-.966zm1.108-.997c.09.235-.08.562-.525.949-.095-.245.085-.552.525-.949z" class="L"/><path d="M51.379 65.967c-.239-.273-.221-.491-.29-1.031.229-.074.546.173.963.702-.072.316-.244.35-.673.328z" class="B"/><path d="M236.928 472.211c.244-.435.504-.519 1.117-.395-.011.715-.232 1.61-1.117.395z" class="K"/><path d="M49.146 69.328c.343-.2.561-.009.752.527-.189.047-.473-.114-.752-.527z" class="B"/><path d="M412.289 419.013c-.049-.308.182-.567.689-.824.048.292-.18.582-.689.824zm1.086-.928c-.049-.251.197-.558.75-.918.053.252-.201.557-.75.918z" class="F"/><path d="M427.644 277.994c.37.136.461.344.439.874-.581.091-1.285-.013-.439-.874z" class="C"/><path d="M371.923 183.725c-.639.211-.67-.106-.235-.611.198-.046.255.391.235.611z" class="E"/><path d="M425.944 291.379c.159-.369.457-.4 1.2-.36.336 1.224-.335 1.026-1.2.36z" class="X"/><path d="M372.307 186.192c-.316-.089-.386-.364-.357-1.054.531-.091 1.311.095.357 1.054z" class="E"/><path d="M47.077 187.29c.353-.123.572.096.787.613.069.225-.326.455-.508.317-.235-.312-.287-.488-.279-.93z" class="I"/><path d="M47.136 188.291c.037-.209.419-.224.608-.194.109.303-.024.546-.418.793-.207.032-.227-.391-.19-.599z" class="G"/><path d="M372.313 182.108c-.331-.114-.389-.362-.359-.981.516-.075 1.316.056.359.981z" class="E"/><path d="M46.696 189.873c.353.112.441.379.393 1.046-.501.046-1.349-.111-.393-1.046zm.017 1.971c.297.075.349.309.318.89-.637.162-1.225-.008-.318-.89z" class="G"/><path d="M49.71 146.897c.154.259.049.623-.352 1.025-.166-.281-.037-.6.352-1.025zm-1.025 1.999c.348.12.422.374.38 1.005-.521.058-1.33-.088-.38-1.005z" class="E"/><path d="M455.032 385.654c-.359.187-.748.07-1.119-.382.375-.198.731-.06 1.119.382z" class="D"/><path d="M414.318 344.136c-.351-.112-.432-.376-.39-1.037.53-.065 1.353.093.39 1.037z" class="C"/><path d="M372.314 177.109c-.335-.115-.398-.365-.364-.99.516-.07 1.32.065.364.99z" class="E"/><path d="M429.988 298.286c.22-.017.348.218.475.452-.15.045-.3.089-.688.167-.118-.101.001-.234.212-.619z" class="X"/><path d="M51.882 174.351l-.072-6.188c-.016-.845.032-1.218.067-1.746 1.194-1.856.372-3.809.8-6.003l3.441-15.771c1.843-8.054 4.123-15.94 7.365-23.602 2.159-5.103 4.521-10.016 7.014-14.937 1.244-2.455 3.564-1.749 3.648-1.74 6.876.726 11.842-2.659 16.33-7.199l14.912-15.097c.539-.551.917-1.284 1.278-1.98 2.007-3.868 4.613-7.448 6.323-11.727 2.555 2.628 1.128 5.157.335 7.615-2.015 6.247-2.562 12.549-2.177 19.134.35 5.997 3.423 9.019 8.971 10.772.998.222 1.652.407 2.645.586l1.343.069c1.231.079 2.127.107 3.363.051.564-.034.791-.045 1.356-.053 1.475.085 2.596.019 4.033-.38 1.717-.098 3.241-.085 3.51 1.606.332 2.09-1.485 2.83-2.926 3.563-8.871 4.511-15.149 11.688-20.515 19.809-2.04 3.088-2.39 6.596-2.872 10.922 3.224-1.929 3.688-4.65 4.548-6.97 3.162-8.529 9.171-14.625 16.714-19.185 4.983-3.013 10.11-5.782 14.755-9.312 1.416-1.076 3.435-2.371 2.508-4.369-.829-1.788-3.003-.794-4.587-.683-4.478.314-8.789 1.99-13.688 1.682-.558.01-.779.006-1.323-.032a5.22 5.22 0 0 1-1.215-.308c-.603-.367-.806-.679-1.278-.713-.611.457-.788.54-1.247.705a7.51 7.51 0 0 1-1.159.205c-.887.034-1.474-.026-2.346-.183-.474-.127-.659-.192-1.108-.378-.607-.381-.966-.374-1.658-.196-4.756-1.939-5.547-5.998-5.413-10.004.383-11.444 2.912-22.197 11.617-30.496-2.136-.443-2.136-.443-8.328 3.767-.568.126-.801.145-1.38.115-1.033-.272-1.538-.739-2.21-1.539-.216-.267-.201-.181-.159-.194-1.088-.972-2.296-1.23-3.865-.196-4.386 2.906-4.619 7.985-7.224 11.702-6.183 8.824-12.626 17.156-22.228 22.499-1.609.895-1.628.861-4.911.675 4.426-9.73 11.47-17.732 18.843-25.34 2.565-2.647 5.061-5.56 8.469-7.764 2.468-1.596 4.841-4.648 7.503-6.989 8.721-7.671 18.066-14.287 28.447-19.359 11.265-5.504 22.831-9.882 35.246-12.743 6.857-1.58 14.287-.85 20.777-4.393 2.381-1.3 5.26 2.061 8.273-.016.599.229.904.323 1.459.156.209-.128.149-.179.125-.147 3.929-1.191 7.98-.257 12.426-.383 13.382 1.422 26.047 3.527 38.537 7.635 9.962 3.276 19.683 6.843 28.866 11.783 8.253 4.44 15.678 10.18 23.372 15.519 9.765 6.777 17.268 15.668 24.844 24.353 4.297 4.926 8.114 10.714 11.557 16.488 3.542 5.94 6.705 12.078 9.415 18.491 2.092 4.949 3.175 10.22 5.521 15.115.99 2.066 2.468 4.469 2.308 7.453-.268 1.454-.958 2.089-2.405 2.371-8.41-3.256-15.414-1.529-22.178 3.745-4.913 3.831-9.893 7.321-12.031 13.548-.838 2.441-2.502 2.43-4.21.817-1.834-1.732-3.103-3.913-4.334-6.08-8.56-15.075-20.738-26.461-35.135-35.956-7.587-5.003-15.79-8.752-23.998-12.013-7.861-3.123-16.413-5.442-25.517-5.628-2.093-.994-3.945-1.538-6.281-1.428-.549-.028-.768-.058-1.301-.195-.698-.322-1.012-.611-1.332-.683-.268.454-.438.596-.917.88-1.649.546-3.037.435-4.752.533a19.9 19.9 0 0 1-2.049-.006c-2.928-.275-5.534-1.125-8.393.349-6.832 2.152-13.657 2.686-20.255 4.35-13.871 3.498-26.05 10.211-37.795 18.266-10.703 7.34-18.726 16.931-26.494 27.419-.354.461-.5.64-1.099 1.317-1.047 1.119-1.747 1.646-2.334 2.69-.42.597-.674.925-1.125 1.488-.308.406-.43.57-.873 1.262-.75 1.288-.912 2.149-1.408 3.26-2.25 2.847-4.385 2.432-6.782.138-6.094-6.618-12.467-12.272-20.939-15.682-2.911-1.285-5.538-1.641-8.569-.416-2.091.588-3.886.955-5.599 1.59-5.992 2.219-8.422 6.553-7.932 12.875.84 10.815 4.249 20.298 12.592 27.709 2.829 2.513 5.796 4.383 9.925 4.932 2.507 1.134 5.505-.173 7.145 2.844-.311 2.434-2.341 2.995-3.795 4.511-.395.338-.551.47-1.11 1.007-.607.716-.755 1.05-.8 1.695 4.455 1.902 7.297 5.655 11.108 8.681 1.177 4.948-.053 9.681 1.102 14.677.374 4.174.827 7.933 1.429 12.054-.742 12.186 4.058 22.387 9.491 32.735l.762 1.092c.647 1.021 1.212 1.68 2.123 2.487 4.661 7.268 9.933 13.7 14.419 20.933 6.281 9.148 14.944 15.287 23.702 21.556 10.958 7.844 23.15 11.849 35.989 14.915 5.298 1.265 10.29 3.684 15.961 2.944 1.037-.135 1.309.648.821 1.645-.983 2.005-2.073 3.735-4.761 3.362-7.841-1.089-15.57-2.367-23.331-4.259-6.755-1.646-13.67-3.291-20.214-5.505-15.513-5.249-30.246-12.419-43.061-22.797-12.247-9.918-23.422-21.055-33.076-33.511-3.259-4.204-6.164-9.097-8.164-14.011-2.606-6.402-7.35-11.649-9.058-18.474-.998-3.986-4.328-7.214-3.546-12.016.098-.602-1.731-4.062-2.734-6.157-1.44-3.007-1.239-6.039-2.061-9.276-1.421-5.257-.823-10.685-3.703-15.693.046-.384.023-.395.029-.385.135-.167.265-.344.201-.787-.229-.712-.264-1.157-.365-1.932-.065-.329-.228-.774-.186-1.007.083-.396.123-.56.266-.954.754-1.1.933-2.02.268-3.285 1.807-1.579-.736-2.854-.126-4.477.225-.642.3-.986.158-1.603-.106-.249-.168-.62-.228-.798-.166-.334-.273-.49-.251-.898.247-1.688 1.724-3.099.139-4.921z" class="Y"/><path fill="#151515" d="M223.174 327.809c-2.579-1.011-4.951.815-7.16.196-7.582-2.124-15.519-1.26-23.147-3.02-11.894-2.744-22.969-7.537-33.487-13.537-6.665-3.802-13.158-8.099-17.957-14.265-.857-1.101-1.82-1.086-3.403-2.156 3.375.712 5.712-.32 8.131-1.607.209-.569.366-.75.837-1.105.945-.383 1.573-.612 2.207-.801 13.218-3.943 21.416-14.031 30.271-23.713 8.193-8.959 11.475-20.17 16.014-30.721 2.38-5.532 3.686-12.018 3.907-18.336.589-16.831.657-33.631-4.423-49.977-.788-2.536-2.394-4.761-2.884-7.726l-.682-1.049c-.337-.623-.501-.988-.756-1.626l-.434-1.044-.638-1.518-.449-.982a36.05 36.05 0 0 0-.703-1.474l-.538-1.001-.803-1.605a11.26 11.26 0 0 1-.488-1.194c-2.726-7.26-7.1-13.217-11.651-18.881-3.256-4.052-8.485-6.309-11.572-10.776-.555-.803-1.447-1.374-1.662-2.757 6.558-5.019 13.745-8.344 21.311-10.898 8.39-2.832 17.163-3.825 25.839-5.239 7.29-1.188 14.588-.062 21.849.54 10.901.904 21.071 4.72 31.187 8.571 2.752 1.048 6.082 2.082 3.916 6.62-.331.42-.475.571-1.07 1.075-.718.589-.927.866-1.105 1.465-.073.454-.109.639-.244 1.093-.44.983-.902 1.624-1.465 2.56-.395.595-.641.923-1.089 1.488-.709.898-1.299 1.498-1.847 2.533a14.22 14.22 0 0 1-.747 1.087c-4.141 3.591-5.723 8.348-7.867 13.125a13.37 13.37 0 0 1-.301 1.283l-.619 1.833-.593 1.796c-.544 1.46-.941 2.641-1.594 4.052-.266.436-.388.6-.74.955-.605.23-.735.307-.627.431.119.137.227.209.486.473.393 1.118.204 1.892-.499 2.826-.505.454-1.043.343-1.184.599-.318.576-.189-.174.533.465.226.455.274.657.319 1.171-.08.919-.22 1.514-.411 2.39-.121.453-.179.626-.342 1.037-.306.528-.365.844-.202 1.431a8.65 8.65 0 0 1 .269 1.019 5.15 5.15 0 0 1 .021 1.094c-.086.457-.137.638-.307 1.074-.223.413-.327.569-.804 1.136-.657.57-.743.73-.642.897s.186.248.368.541c.102.507.108.721.062 1.26-.557 5.679-.347 11.037-.131 16.755.025.843.031 1.327.021 2.177-.688 6.841.562 13.012 3.085 19.334 1.008 3.034 1.374 5.899 2.95 8.739.31.758.447 1.203.641 1.989.232.995.293 1.677.646 2.641a25.85 25.85 0 0 1 .421 1.316c3.677 16.21 12.906 26.494 29.581 29.779 4.838 1.446 9.52 1.895 14.427 2.925.927.363 1.509.667 2.391 1.066a13.3 13.3 0 0 1 1.125.506c.728.271 1.028 1.12 1.972.374.526-.07.746-.062 1.294.015 5.007.906 9.702-.18 14.451.433 5.708.738 6.167.94 3.651 6.743-4.407 4.627-7.265 9.858-10.183 15.441-.235.498-.349.686-.703 1.085-.361.579-1.547.094-.885 1.378-1.133 4.115-4.011 6.743-6.602 9.981a12.2 12.2 0 0 1-.971.976c-.46.347-.655.47-1.173.717-.553.128-.783.133-1.286-.074-6.617 1.993-9.16 8.437-14.155 12.275-5.99 4.603-12.298 9.038-19.108 11.471-6.576 2.35-12.545 6.588-20.279 6.72-3.58.061-7.475 2.805-11.728 1.77-.042-.01-.303.883-.796 1.546-1.981.755-3.674.422-5.741.3-.393-.153-.857-.314-1.091-.387-.866.065-1.391.432-2.215.9z"/><path d="M382.79 309.197c5.27-.769 10.419.558 15.767-1.267 4.938-2.36 6.668.552 7.605 4.137.872 3.335 1.244 6.801 1.824 10.625-1.02.893-1.963 1.486-3.22 2.227-2.063.954-3.913 1.354-6.178 1.494-2.989.064-5.66-.104-8.186.878-3.076 1.196-5.163 3.026-3.964 7.09.248 1.281.049 2.195-.213 3.445-.848 4.133 1.391 6.79 3.329 9.611 1.369 1.992 3.629 3.318 4.352 6.153-.73 3.029-.02 5.835-.726 8.86-1.075 2.002.126 3.3.722 5.048.688 1.908.924 3.667 2.239 5.294 2.003 4.351 1.346 8.415.63 12.869-1.307 3.163-2.84 5.946-4.478 9.059-2.386 5.949-6.592 10.098-11.014 13.935-3.97 3.444-8.312 6.473-13.018 9.525a25.02 25.02 0 0 1-1.669.991l-1.048.62a20.83 20.83 0 0 0-1.479 1.021 6.25 6.25 0 0 1-1.008.684 5.06 5.06 0 0 1-1.189.337 13.52 13.52 0 0 1-1.257.061c-2.035-.09-3.657.884-5.687.288-2.031-.616.045-5.966-4.424-2.971-1.162 1.009-2.241 1.512-3.662 2.108-2.487-.528-2.918-2.188-3.025-4.428.307-3.827-2.675-6.475-2.403-10.303-.815-3.301-.977-6.058 2.467-8.06 4.262-4.263 4.597-9.946 1.044-13.795-6.307-6.832-14.241-9.43-23.357-8.639-3.555.308-5.611 2.301-6.337 5.933-1.901 9.513-2.106 9.898-11.403 10.089-17.034.35-19.933 9.965-23.85 21.461-1.513 4.441-1.643 9.118-1.876 14.212-2.432 2.18-4.813 1.338-7.535.542-3.48-.677-5.734-5.719-3.793-7.96 1.195-1.38 2.642-2.547 3.796-3.956.7-.854 1.52-1.981.648-3.157-.974-1.313-2.268-1.157-3.871-.282-.636-.276-.773-.705-.548-1.491.502-.232.793-.29 1.12-.695.552-1.101.42-2.26 1.674-2.989 3.769 2.947 5.154 1.799 5.501-2.316.454-5.382-.591-9.622-6.772-10.797-.774-.147-1.428-.836-2.189-1.147-8.123-3.317-8.604-4.459-5.074-12.211 6.404-14.066 4.806-18.491-8.951-24.938-1.968-4.364-5.153-3.914-8.811-2.594-9.94.619-19.213 3.246-29.01 5.178-.681-1.21.374-2.579-1.074-3.902-.191-.26-.214-.08-.124-.068-.767-.583-.504-1.637-.973-2.751-.504-1.409-1.04-2.457-1.365-3.567-1.846-6.32-.928-7.572 5.711-7.714 16.631-.355 32.604-3.99 48.18-9.61 3.3-1.191 6.398-3.477 10.07-.478.808.66 2.861-.204 4.753-.45 2.488 2.008 3.474 4.12.153 6.432-2.998.337-5.094 1.313-6.617 3.629-4.848 7.373-4.397 20.533.391 27.792 3.776 5.724 9.02 7.058 15.083 6.332 5.481-.656 10.721-2.435 15.077-6.024 3.926-3.235 8.306-5.446 13.609-6.733 5.432-1.421 10.022.991 15.235 1.725 1.534.15 2.524.595 3.738 1.499 3.747 4.648 8.766 5.667 13.758 5.578 8.546-.152 15.906-3.943 19.824-11.448 4.145-7.94 3.654-16.119-2.069-23.971-7.351-10.087-17.469-13.794-29.19-14.725l-5.484-.367c-7.43-.59-8.541-1.589-9.903-9.426 1.388-2.608 2.922-4.724-.334-6.879-1.381-.914-2.021-2.638-.958-4.696 1.63.375 2.847 2.453 4.548.58 1.455-1.602-.039-2.759-1.079-3.755-2.581-2.475-.21-3.752 1.215-5.19 7.975-8.046 14.784-17 21.078-26.783.272-.21.724-.161.75.064.581 3.594-1.759 6.918-.14 10.692.953 3.322.314 7.191 4.714 8.504 2.682.345 4.36 4.293 7.761 1.727.528-.231.714-.335 1.194-.301.643.696.698 1.325.777 2.221.156.593.369.838.929 1.052l1.623.264c.899.218 1.502.386 2.431.633 3.745 2.109 2.729 5.082 1.98 7.948-1.364 5.213-.954 6.075 3.849 8.41 2.453 1.192 5.517 1.353 7.342 4.314.393.006.536-.223 1.072-.547.508.07.622.234.971.211z" class="N"/><path fill="#a0dbd0" d="M322.017 298.943c-.325 2.456.934 4.342 2.928 5.268 5.469 2.539 2.578 3.907-.787 5.658-3.265 7.304-.868 11.405 6.364 11.612 4.644.133 9.461-.853 13.901.579 9.628 3.105 18.161 8.038 24.012 16.715 1.352 2.005 2.072 4.156 2.015 6.556-.384 16.131-13.191 25.559-28.774 22.332-1.613-.334-3.26-.655-5.146-1.455l-3.663-1.635c-4.9-3.62-9.927-4.56-15.791-3.083-6.241 1.052-11.329 3.543-15.917 7.408-3.626 3.054-8.248 4.352-12.837 5.153-7.912 1.381-16.447-4.859-17.44-13.472-1.007-8.727.157-17.292 7-24.381 4.896-.372 1.535-3.378 2.023-5.414l.068-5.442c-.111-2.59 1.792-3.078 3.143-3.742 11.359-5.588 21.603-12.783 31.056-21.158a10.12 10.12 0 0 1 4.687-2.418c1.163-.061 1.86.256 2.888.758.324.205.261.192.272.161z"/><path d="M343.869 398.19c-.555 2.41-2.975 4.366-1.042 7.557-4.547 5.526-4.372 6.594 1.805 9.886.465 1.898.085 3.715 1.906 5.167.791.507 1.144.935 1.461 1.889-.589 8.758-2.141 10.63-10.055 11.805-2.799.416-5.32 1.902-8.579 1.671-9.487.188-18.595.834-27.7.789-4.664-.023-9.658-.064-13.818-3.78-2.858-.917-2.747-3.266-3.143-5.588-2.264-9.197.506-17.201 5.365-24.161 2.245-3.216 5.871-6.56 10.787-6.506l5.981.13c7.027-.033 11.059-3.551 12.133-10.536 1.036-6.742 1.602-7.181 8.244-6.392 9.893 1.175 14.37 6.12 15.083 16.539.033.488.802.926 1.574 1.531zm-76.892 12.523l.006 2.046c.039.314.009.265.036.257l-1.119.933-1.315 1.216c-6.237 5.898-11.224 6.12-17.259.144-4.803-4.756-10.657-8.477-14.55-14.096-6.438-9.294-13.821-18.086-16.528-29.491-1.135-4.785.339-8.774 5.023-9.762 8.822-1.861 17.662-4.781 26.932-1.622 2.645.901 4.738 2.022 6.562 4.469 2.164 1.403 3.326 2.95 2.625 5.65.993 6.038-1.198 11.187-3.353 16.167-1.927 4.453-.132 6.926 3.373 9.025.708.424 1.502.718 2.277 1.016 7.985 3.072 8.964 4.889 7.287 14.048z" fill="#a1dbd0"/><path fill="#8a8772" d="M328.809 436.222c3.116-1.699 6.055-2.986 9.486-3.03 6.147-.08 8.172-4.214 8.831-9.921 1.055-1.336.735-3.146 2.534-3.929.627-1.726.747-4.122 2.874-3.515 2.327.664 2.507 3.236 2.417 5.888 2.416 1.903 4.083-.004 6.296-.786.324.029.257.117.211.088.333.168.737.272 1.342.037.18-.261.151-.08.061-.1.63-.388 1.137-1.002 1.877-1.792.183-.233.246-.181.226-.217.442-.33.964-.433 1.736-.623 1.147-3.372 4.347-4.09 6.704-5.397 7.662-4.249 12.787-10.993 18.521-17.657 1.244-.174 2.35-.446 2.938 1.092.662 2.659-.482 4.402-1.855 6.17-15.242 19.612-35.062 32.058-59.124 37.897-1.916.465-3.837 1.275-6.058-.272-1.951-.684-.834-1.775-.827-2.871.567-.447 1.1-.639 1.807-1.062z"/><path fill="#62827d" d="M147.399 292.659c-.371.195-.784.287-.991.33l-16.867.02c-6.816-5.734-11.836-12.485-15.595-20.52-.449-.978-1.003-1.534-1.798-2.264-.228-.186-.156-.223-.181-.191-2.525-6.694-5.899-13.068-7.855-20.023-1.2-4.265-2.459-8.484-2.604-13.374-1.231-11.327-.602-22.24-.226-33.149.084-2.435-.312-5.079 2.542-6.878 3.89 1.849 2.794 5.176 2.533 7.921-2.207 23.217 2.693 44.903 13.649 65.347 2.838 5.296 6.602 9.968 10.011 14.881 2.622 3.779 5.87 4.993 10.331 3.716 2.517-.72 5.101-1.599 8.21-1.001 2.006 2.26 1.156 3.757-1.158 5.185z"/><path fill="#141414" d="M220.773 402.957c-7.698 2.606-14.895 6.14-22.071 9.383-4.633 2.094-6.418-2.572-10.05-1.826-.922.189.218-1.693 1.086-2.337 3.99-2.957 8.797-4.382 12.981-7.096 4.402-2.856 8.729-5.703 12.26-9.556 2.207-2.408 3.792-2.026 5.354.426 1.037 1.627 1.895 3.368 2.929 4.997 1.858 2.93 1.469 3.752-2.029 4.277-.201.03-.278.882-.46 1.732z"/><path fill="#a4d4cc" d="M281.402 319.671c-.836-7.867 5.779-10.056 10.493-14.139 2.53-5.733 7.418-8.581 12.334-11.832 2.034-.129 3.377-1.32 5.384-1.489 2.98.886 5.148-2.18 8.126-.674 1.317 2.494-.06 4.151-1.438 5.518-9.183 9.107-19.768 16.294-31.159 22.334-1.039.551-2.207.753-3.74.282z"/><path fill="#d8e5ed" d="M235.107 335.257c-7.495 1.183-14.598 1.882-21.757 1.873-1.624-.002-3.615.287-3.448-2.31.159-2.464 1.778-2.673 3.897-2.569 18.466.91 35.901-3.391 52.73-10.643.913-.394 1.795-.861 2.705-1.261 2.182-.96 4.987-2.048 5.844.897.659 2.265-2.457 2.939-4.214 3.597-11.516 4.314-23.191 8.128-35.756 10.415z"/><path fill="#131313" d="M256.053 454.642c-.036.357-.394.245-.581.236-.329-1.494-.299-3.302-1.928-3.831-4.626-1.503-2.539-4.051-1.245-6.566 2.24-4.354 3.646-9.529 6.937-12.827 2.68-2.685 6.581.859 9.646 2.462 1.396.73 3.586 1.209 1.56 4.137-1.966 2.841-4.993 4.637-6.722 7.636-.111.192-1.614 4.065-3.849.638-.873-1.339-1.171 2.097-2.729 1.955 2.481 2.448-1.785 3.671-1.088 6.159z"/><path fill="#557773" d="M280.956 319.794c13.162-5.855 24.306-14.257 34.663-23.789.924-.85 1.378-2.211 2.182-3.643.457-.651.859-.823 1.644-.717 3.426.878 2.824 2.823 1.694 5.246-.637.847-1.218 1.216-2.005 1.872-6.989 3.934-11.959 9.933-18.446 14.031-6.608 4.174-13.312 8.115-20.508 11.879-1.369.517-1.997 2.843-3.443 1.442-1.549-1.5.093-2.687 1.046-3.676.886-.919 2.034-1.586 3.172-2.646z"/><path fill="#4d5c5a" d="M305.188 294.497c-5.445 2.388-8.309 7.219-12.822 10.564-3.598-1.995-.52-3.673.371-5.236 1.347-2.364 4.499-3.266 5.349-6.469-.073-.355.312-.407.504-.381.5-.161.789-.374 1.227-.824.17-.209.177-.15.153-.167 2.46-.983 5.137-2.447 5.219 2.514z"/><path d="M243.376 354.152c.998-6.651 5.154-1.144 7.872-1.887.434-.119 4.212 1.097 1.158 3.736l-9.031-1.849z"/><path d="M193.9 420.749c-2.167-.209-4.128-.702-3.039-3.82 1.019-2.919-1.99-2.668-3.625-3.933 5.27-.487 6.501.873 6.664 7.754z" class="P"/><path d="M257.509 370.921c.396-2.43-2.048-3.362-2.481-5.512.267-1.096.948-1.48 1.518-1.071 2.564 1.839 3.601 7.76 1.865 11.048-.204-1.583-.38-2.949-.902-4.466zm12.424 36.452c-.473 1.151-.987 1.891-1.729 2.914-.075-2.771.064-5.826.264-8.877.014-.213.484-.395 1.425-1.111l.04 7.074zm.435 21.132c2.185-.37 4.522-.434 7.227-.386.328.465.289.818.234 1.436.044.673-.099.998-.704 1.262-2.394-.662-4.499-1.334-6.757-2.312zm14.182-1.285c1.003 1.776 1.701 3.55 2.698 5.567-3.241-.308-3.276-2.851-2.698-5.567zm-71.452-72.04c1.835-.904 2.387.673 2.763 1.839.364 1.13-1.104.837-1.843 1.6-1.43-.583-.661-1.924-.92-3.439z"/><path d="M181.871 409.081c.625-.484 1.45-.758 2.713-1.068.425.437.413.91.36 1.737-.984.083-1.928-.188-3.073-.669z" class="P"/><path d="M226.315 327.405c1.429-.271 3.087-.28 5.158-.253-1.274 1.238-3.107.816-5.158.253z" class="B"/><path d="M211.808 352.077c1.53.176.957 1.746 1.623 2.631-1.598-.156-1.293-1.567-1.623-2.631z"/><path d="M223.273 328.01c.025-.897.362-1.829 1.743-1.437-.006 1.123-.594 1.417-1.743 1.437z" class="B"/><path d="M276.919 431.099c.007-.598.188-.86.678-1.168.695-.036 1.258.143.802.689-.302.361-.508 1.332-1.48.479zm-10.913-16.977c-.08-.311.186-.623.746-1.024.062.281-.169.652-.746 1.024z" class="N"/><path fill="#161616" d="M366.281 182.536c-.164.393-.319.793-.323 1.008-.223.523-.319.863-.141 1.481.132.241.102.478.118.596-.195.431-.292.774-.119 1.393.137.24.132.663.213.858.794 1.835.355 3.551.274 5.634-1.201 6.774-1.804 13.266-3.423 19.494-2.106 8.101-4.046 16.32-7.583 23.97-2.651 5.735-2.472 5.019-8.336 2.031-2.46-1.253-6.033-1.898-9.018-2.408-5.364-.915-3.262-4.016-3.177-7.111-.199-.616-.361-.884-.73-1.57-1.374-8.098-.611-15.802-.505-23.945.237-3.865-.526-7.353.916-11.031 1.133-1.495 2.428-1.47 3.759-1.553 5.486-.341 5.682-.801 2.579-5.576-.178-.274-.329-.564-.6-1.196a5.82 5.82 0 0 1-.281-1.425c.045-.864.167-1.34.551-2.113.922-1.042 1.824-1.569 2.796-1.706 8.98-1.266 14.808-6.916 19.906-14.24.489-.37.707-.487 1.294-.653.608.02.847.087 1.295.464.209.308.209.737.291.935.654 5.546.405 10.91.244 16.662z"/><path fill="#a1dacf" d="M362.148 285.236c-.266-.252-.732-.264-.958-.318.076-1.936-.675-3.193-2.37-4.07-5.788-2.993-5.498-8.89-3.655-16.002 1.399-5.398 5.58-7.903 12.49-8.022 12.874 9.496 22.982 20.986 30.742 34.662 2.439 4.299.934 8.129-.241 11.757-.926 2.859-4.631 1.662-7.213 1.817-4.681.28-9.29-.238-14.271-1.286-4.05-1.429-5.624-3.877-4.654-7.803 1.949-7.887 1.508-8.48-6.818-9.56-.991-.129-1.969-.277-3.052-1.176z"/><path fill="#dcedf6" d="M319.948 291.497c-.594.328-1.001.378-1.712.493-3.163-1.175-4.78 3.065-7.886 1.195.017-1.856-.699-2.945-1.171-4.445-.371-2.337.723-3.791 1.808-5.293 5.959-8.242 10.709-17.158 14.769-26.873 2.425-5.027 1.745-10.612 4.946-15.323 6.382-.092 11.227 4.281 17.251 4.832.402.037 2.531 4.007.764 7.221-7.721 14.043-16.654 27.083-28.769 38.191z"/><path fill="#516d6b" d="M331.142 240.714c-.786 5.556-2.027 10.646-4.237 15.837-3.528 2.796-3.889 2.656-5.017-1.998 3.188-9.426 6.382-18.417 6.858-28.086.049-.987.518-1.897 1.356-3.011 4.107-1.259 2.638 2.765 4.466 4.202.256.483.267.684.219 1.181-1.469.322-2.348.283-2.262 2.455.119 3.019 1.069 6.354-1.383 9.42z"/><path fill="#1a1a1a" d="M373.696 44.222c5.03 1.826 5.213 2.939 2.073 6.388-1.728 1.898-4.007 2.652-6.023 3.939-1.374.877-2.785.939-3.967-.421-1.287-1.482-.917-2.252.766-3.346.677-.44-1.175-3.205 1.491-4.091 1.177-2.729 3.594-1.563 5.659-2.468z"/><path fill="#a0d3ca" d="M365.182 164.696c-.23.194-.695.32-.907.434-1.625-.389-2.419-1.522-2.51-2.881-.332-4.964-2.015-9.76-1.663-15.2.541-1.241 1.189-1.785 2.5-2.093 2 5.306 3.797 10.607 3.242 16.763-.499 1.177-.277 2.01-.662 2.976z"/><path d="M352.901 283.161c-7.918 2.039-3.458-4.539-4.832-7.623.904 2.584 2.937 4.829 4.832 7.623z"/><path d="M366.409 182.64c-.307-5.055-.323-10.398-.314-16.155 1.534 4.966.936 10.421.314 16.155z" class="R"/><path d="M363.015 144.567c-.456.683-.933 1.014-1.95 1.227-1.041-.711-1.303-1.44-1.824-2.35l-1.288-1.923c-.183-.454-.218-.65-.057-1.071 1.01-.392 1.899-.409 2.616-1.461.707 1.769 2.819 2.994 2.503 5.577z" class="S"/><path d="M216.57 21.557c-3.673.299-7.665.358-12.119.471 3.508-2.076 7.697-.705 12.119-.471z" class="B"/><path d="M373.631 43.993c-.962 1.803-2.891 1.992-5.239 2.156-.306-4.374 2.804-2.111 5.239-2.156z" class="M"/><path d="M357.992 252.87c-1.028-.075-1.499 1.92-2.153.33-.086-.209-1.315-2.261.449-2.438.617-.062 3.492-.665 1.705 2.109z"/><path d="M109.407 63.987c.334-3.125 1.891-2.292 3.658-.419-1.031.392-2.138.4-3.658.419z" class="M"/><path d="M52.639 160.031c.324 1.977.719 3.955-.373 6.07-.343-1.618-.284-3.398-.185-5.615.04-.438.385-.459.558-.455z" class="Q"/><path d="M366.401 193.657c-.274-1.418-.304-3.086-.312-5.171 1.403 1.242.762 3.103.312 5.171z" class="R"/><path d="M112.99 67.991c.045-.382.076-.779.079-1.477.268-.973.668-1.549 1.691-1.65l.226.123c2.559 2.326 1.006 3.047-1.713 3.199l-.283-.194z" class="Y"/><path d="M319.269 298.957c-.133-.751.221-1.444 1.421-1.667.593.38.891.798 1.284 1.457-.704.223-1.504.205-2.705.21z" class="N"/><path d="M365.207 164.968c-.125-.857.005-1.636.361-2.605.361.583.496 1.357.509 2.507-.286.31-.451.243-.87.098z" class="R"/><path d="M115.006 64.716c-.426.646-.913.959-1.683 1.384-.312-.402-.343-.917-.327-1.82.68-.224 1.314-.061 2.01.435z" class="M"/><path d="M203.765 21.976c.145.641-.015 1.243-.878.334.099-.319.323-.374.878-.334z" class="B"/><path d="M366.05 184.89c-.511.065-1.305-.082-.366-.996.335.116.401.367.366.996zm-.014 1.986c-.502.074-1.296-.068-.351-.993.323.109.379.362.351.993z" class="R"/><path d="M347.934 263.922c.076-.294.278-.462.479-.63.061.233.122.467.041.852-.141.152-.395-.096-.52-.222z" class="N"/><path fill="#f6e39a" d="M327.458 440.385c23.014-4.67 42.945-14.51 58.431-32.397 3.004-3.469 6.882-6.266 8.822-11.052 5.995 2.938 5.765 8.598 5.08 13.743-.732 5.502-1.006 11.237-4.109 16.279-8.661 14.076-21.941 24.906-37.856 23.91-9.041-.566-18.24-1.238-26.848-4.847-2.505-1.05-3.854-2.464-3.521-5.637z"/><path fill="#a3d4cc" d="M385.056 338.087c.136-1.053.394-1.75.795-2.692.607-4.264 2.964-6.59 6.717-7.773 1.678-.529 3.486-.81 5.125-2.314 2.499.118 4.502-.976 7.037-1.302 3.869.123 2.287 2.912 3.062 4.828.234.252.245.139.189.129.362.395.5.922.783 1.663 2.098 10.455-.053 20.448-1.77 30.476-.368 2.149-1.582 3.544-3.721 4.703-1.168 1.203-2.269.798-3.72.595-1.265-.708-1.558-1.604-1.603-2.987-.299-.969-.288-.146-.287-.763.012-10.234-8.508-16.049-12.607-24.563z"/><path fill="#141414" d="M407.977 373.157c.383-1.447.658-2.576 1.23-3.527.631-1.047 1.534-1.93 2.319-2.884.372 1.158 2.486 1.554 1.438 3.409-.131.232.567 1.246 1.073 1.476 7.302 3.319 13.305 9.134 21.426 10.953 1.923.431 4.185 1.704 1.124 4.339-.951.819-2.627 2.16-2.168 4.244.296 1.342-.491 1.688-1.589.92-6.782-4.738-14.995-6.623-21.939-11.138-3.148-2.047-3.562-4.294-2.914-7.793z"/><path fill="#628280" d="M384.773 338.051c.487-.262 1.018-.309 1.11-.131 4.126 8.047 14.606 12.902 12.129 24.678-1.212.434-2.343.416-3.881.52-.535-.071-.662-.264-.865-.795.382-2.82.281-5.317.05-8.147-2.141-2.895-4.288-5.396-6.242-8.04-1.678-2.271-3.285-4.659-2.3-8.085z"/><path fill="#4b4b4b" d="M432.982 281.189c.504-.574.983-.787 1.684-1.165 1.655.149 3.088.463 4.88.856 2.452-.435 2.946.865 3.323 2.834-.63 1.304-2.003 2.203-2.183 3.297-.792 4.809-3.871 4.605-7.547 4.038-.86.148-1.564.029-2.619-.153.579-3.158 1.507-6.252 2.462-9.707z"/><path d="M396.985 385.66c-2.295-3.449-.414-7.625-.902-12.048.221-.378.389-.332.522-.237 5.319 3.805 1.928 7.882.381 12.285z" class="Y"/><path fill="#464646" d="M443.229 283.742c-1.024-.642-1.881-1.571-3.031-2.641-2.072-2.195-.15-4.313-.309-6.758 3.57-.421 1.356 4.128 4.431 4.806.658 1.775.349 3.183-1.091 4.593z"/><path fill="#828988" d="M448.486 396.012c-3.062-2.622-3.888-6.495-6.371-9.704-.112-.327-.115-.284-.136-.279.252-.257.536-.505 1.052-.917.221-.177.478-.182.604-.188.905 4.231 5.679 6.099 6.226 10.79-.431.351-.775.334-1.376.299z"/><path d="M399.405 366.529c.764-.306 1.777-.405 3.175-.529 3.682.982 1.035 2.125.452 3.211-.384.716-.31 2.195-1.8 1.225-1.181-.769-1.252-1.569-.302-2.765.404-.509-.646-.846-1.525-1.142zm-5.423 1.354c-2.581-1.273-4.032-2.887-1.985-6.16.448.032.627.584.576 1.219-.033.413-.19.788-.318 1.172.252-.379.547-.726 1.249-1.025.415.053.279.025.249.088l1.117 3.126c-.036.679-.231 1.014-.737 1.481-.235.178-.134.148-.151.098zm36.832-58.472c-.595 2.21-2.37 2.838-4.452 2.998 1.21-1.291 2.246-2.769 4.452-2.998zm-22.895 19.259c-1.385.937-1.925.567-1.189-.977.68-1.425.073-2.499-1.261-3.577.145-1.03.18-2.886 2.209-1.091.242 1.798.189 3.513.241 5.645z"/><path d="M408.953 330.526c-.515-.155-1.036-.604-1.293-1.313.606.167.946.592 1.293 1.313zm23.202-22.852c.581.112.838.618.304.89s-.827-.059-.304-.89z"/><path d="M442.967 385.026c.02.181-.245.455-.759.867-.009-.166.233-.47.759-.867z" class="W"/><path d="M394.256 367.959c-.162-.326.034-.655.464-1.17.12.265.008.716-.464 1.17z" class="N"/><path d="M361.838 285.294c1.686-.38 3.331-.551 4.97-.503 7.57.221 10.076 4.125 6.719 10.93-1.768 3.585.92 5.176 2.598 7.683.853 2.854 5.234 2.031 4.911 5.939-4.377-1.629-9.238-2.702-13.006-5.798-1.979-1.626-.956-3.907-.022-5.907 1.195-2.557 1.981-5.125-.615-7.702-.854-.476-1.349-.775-2.26-.625-.664.105-1.047.124-1.713.096-.851-.239-1.382-.491-1.97-1.182-.003-1.032.172-1.826.39-2.93zm20.987 23.667c.037.392-.137.698-.573.102-.038-.171.373-.15.573-.102z" class="D"/><path fill="#7e7e7e" d="M242.079 464.001c-.059-2.394.24-4.293 1.441-6.123.806 2.265 1.603 4.414 1.395 6.727-.118 1.315.819 3.608-1.119 3.657-2.213.056-1.667-2.294-1.717-4.261z"/><path fill="#0d0d0d" d="M39.024 56.162c.215-.119.618-.095.811-.154.362-.216.53-.374.952-.768 2.787-.787 3.75.432 4.136 2.821.495 3.059-1.171 5.728-2.569 7.652-1.486 2.045-3.86-.107-5.245-2.232-1.069-2.477-.227-4.774-.25-7.233.231-.25.159-.228.173-.193.165-.098.317-.231.695-.164.227.2.267.123.23.147.204.325.5.399 1.067.125z"/><path d="M36.746 56.198c1.422 1.986-.519 4.468.712 6.778-1.983-1.919-1.514-4.249-.712-6.778zm1.219-.41c-.013.302-.467.28-.694.291-.258-.72-.089-1.142.694-.291zm2.795-.768c.136.318-.008.651-.442.957-.139-.332.012-.637.442-.957zm-1.852.955c.063.515-.062 1.25-.919.372.15-.337.369-.388.919-.372z" class="B"/><path fill="#5e5e5e" d="M451.735 400.852c-1.703-.328-2.081-1.274-1.787-2.511.182-.766.829-.995 1.391-.457.823.787 2.339 1.519.396 2.968z"/><path d="M52.045 187.201c1.627.368 2.702 1.263.305 2.835-.323-.76-.32-1.587-.305-2.835z" class="Q"/><path d="M51.592 191.156c.106-.102.262.343.224.576-.356.071-.453-.165-.224-.576zm.419 3.069c.357-.064 1.089-.051.228.72-.228-.1-.229-.277-.228-.72zm-.278-15.106c.139-.1.259.381.231.627-.142-.012-.256-.269-.231-.627zm.348 1.982c.571-.102 1.236.122.313 1.031-.312-.139-.33-.394-.313-1.031z" class="I"/><path d="M450.995 388.998l.815 1.513c.011.021-.322.213-.495.325l-.278-1.597c-.004-.274-.027-.249-.042-.24z" class="D"/><path d="M50.458 201.527c-.027-.047.027.047 0 0z" class="H"/><g fill="#8b9191"><path d="M357.761 140.059c.332.167.382.505.389.676-1.199 2.511-3.675 1.4-5.768 2.313-3.537 1.773-6.875 3.055-10.34 4.159-6.999 2.23-11.268 7.583-14.748 14.154-2.059 2.115-3.007 5.164-6.769 4.9-2.387-.279-3.618-1.577-4.49-3.263-9.712-18.779-24.353-32.905-42.091-44.564-1.155-.917-1.968-2.204-3.422-.397-.438.303-.632.4-1.143.576-2.12-.411-4.01 2.268-5.785-.406a1.64 1.64 0 0 1 .568-1.117c1.612-2.436 2.238-4.016-1.331-5.105-7.51-2.292-14.693-5.973-22.326-7.429-4.562-.871-9.532-2.888-13.728-2.111-3.103.574-5.134-1.514-7.966-.734-2.942.81-6.632-.532-9.271.664-2.982 1.352-6.702 1.781-9.025 1.868-5.33.199-9.806 2.572-14.651 3.231-6.943.945-12.349 4.929-18.481 7.343-1.339.527-3.595.209-4.843 2.112-1.244 1.13-2.418 1.903-3.422 3.315-.626 1.076-.997 1.91-1.832 2.853-4.351.407-7.466 2.676-10.345 5.198-8.892 7.786-17.614 15.706-23.456 26.281-1.721 3.115-3.172 6.678-7.015 8.619-6.636 2.333-7.257 2.09-9.264-3.766.143-.608.245-.839.639-1.311 2.116.676 3.72 3.425 6.147.124.713-1.052.412-1.958.786-3.036.161-.274.214-.214.175-.225a3.86 3.86 0 0 0 .887-.989c-.032-.604.061-.88.652-1.044 1.136-.605 1.566-1.589 2.287-2.747.16-.274.214-.208.175-.225.256-.2.511-.43.881-.912 4.208-6.567 9.043-12.248 14.05-17.908 7.273-8.222 16.754-13.512 25.491-19.413 8.359-5.646 18.671-8.807 28.951-10.7l17.265-3.01c2.718-1.295 5.182-.356 7.932-.735.871-.226 1.369-.29 2.232-.255 2.134.805 3.955.413 6.001.107.241-.243.231-.172.199-.188.199-.115.43-.213 1.001-.15.34.162.73.083.911.165 2.239.183 4.272.593 6.682.771 8.177.593 15.641 2.482 23.126 4.864 7.718 2.455 15.209 5.589 22.057 9.529 5.923 3.408 12.209 6.76 17.159 11.873 1.898 1.961 5.463 2.903 6.74 4.601 1.877 2.494 3.718 5.615 5.816 7.616 7.128 6.797 11.082 15.763 17.042 24.127.949-5.779 3.131-9.88 7.215-12.66 5.869-3.995 10.669-10.173 18.775-9.824 3.073.132 6.633-1.566 9.282 2.189z"/><path d="M105.498 196.987c-2.439.118-2.689 1.404-2.653 3.095.254 12.034-1.651 24.018-.888 36.541-.15.619-.272.765-.567.684-.576-4.274-.978-8.321-1.386-12.813-1.086-5.614-.182-10.851-.854-16.196-.489-.155-.668-.207-.813-.158-5.081 1.723-3.123-3.999-5.359-5.045-2.095-.98-6.636 2.734-5.998-3.699.275-.61.497-.836.829-1.278.13-.198.185-.122.148-.151.148-.165.333-.302.768-.676 2.213-.528 1.633-4.349 4.923-3.31 1.322-1.307.965-2.236-.6-2.431-1.812-.226-3.658.04-5.766-.347-7.47.702-11.347-4.947-15.104-9.054-4.723-5.162-7.194-12.103-8.388-19.254-.572-3.425.177-7.094-1.847-10.277-.197-.31-.069-1.119.208-1.393 4.304-4.252 7.993-9.552 15.507-9.201 3.078-1.196 5.867-.316 9.009-.244 7.362 1.883 12.505 6.492 17.333 11.284 1.344 1.334 4.576 1.01 4.126 4.455.011.356-.05.411-.08.439-.817.759-1.711 1.263-3.184 1.344-3.084-.106-4.874-1.939-6.835-3.448-3.951-3.042-7.857-6.149-12.852-7.387-3.63-.9-7.213-1.22-10.676.599-3.402 1.786-4.727 4.239-4.592 8.424.305 9.464 5.481 16.477 11.741 22.1 6.745 6.058 13.808 8.767 24.391 2.247 1.184-.05 1.943.137 2.966.784.973 5.396-.532 10.001-3.507 14.367z"/></g><path fill="#999899" d="M113.243 68.217c1.799-.287 2.146-.688 1.717-2.921 3.205-.675 4.466-3.533 6.458-5.412 1.616-1.524 3.602-1.225 5.042-.57 1.319.6 1.646 2.478.712 4.083-.269.462.221 1.525-.817 1.355-6.038-.986-5.054 4.891-7.025 7.634-.749 1.042-2.934 3.494-.68 5.986.759.839-1.519.332-2.046 1.027-2.617 3.455-2.034 17.732.907 21.287.371.449 1.122.584 1.982 1.071.504.1.722-.007 1.272.036.332.15.265.194.245.16.631.756 1.515.519 2.627.344.466-.208.654-.255 1.13-.258.459.141.631.236.99.105.188-.227.24-.152.203-.179.184-.125.405-.223.952-.162.326.159.741.131.937.2.34.184.484.299.857.26 6.682-1.318 13.29-1.274 19.705-3.01 1.896-.513 3.473 1.84 2.449 4.047-1.099 2.371-3.217 3.978-5.236 5.685-6.439 5.443-14.831 7.691-21.018 13.75-5.609 5.493-8.544 12.269-11.237 19.14-.994 2.536-2.558 1.827-3.632 2.023-1.365.249-1.938-1.37-1.804-2.851.28-3.096 3.579-5.703 1.483-9.18 4.374-1.92 4.595-7.37 8.421-9.827 3.798-2.439 5.525-7.287 9.706-9.13 2.316-1.021 3.954-3.517 6.933-3.228.642.062 1.446-.825 1.293-1.8-.19-1.209-1.223-.797-2.329-.889-1.38.841-2.61.341-4.043.701-.51.204-.707.251-1.199.226-1.334-.684-2.46-.361-3.842-.21-.472.212-.656.256-1.12.26-.72-.489-1.337-.463-2.124-.793-4.274 1.045-7.052-1.798-9.045-4.084-3.796-4.353-2.303-10.077-2.439-15.398-.174-6.784 3.22-12.692 3.614-19.479z"/><path d="M95.369 117.688c3.03 3.158 2.291 7.978 4.93 10.41 3.434 3.164 2.376 7.49 4.363 10.871 1.59 2.705-1.316 3.005-2.568 3.585-1.04.481-2.628.057-3.114-1.817-1.46-5.631-4.594-10.642-5.956-16.36-1.354-5.683-9.949-10.248-15.902-8.866-.448.104-.885.565-1.285.517-2.264-.272-5.746 3.145-6.561-1.152-.667-3.514 3.638-4.405 5.753-4.689 4.319-.579 8.932-1.527 13.21 1.249 2.208 1.433 4.826 3.06 7.129 6.252z" class="K"/><path d="M101.169 237.473c.048-.392.404-.374.582-.375 2.266 11.184 6.958 21.53 10.375 32.598-2.844-2.442-4.297-5.791-5.718-9.421-1.952-4.988-3.24-10.137-5.046-15.113-.97-2.671-.284-4.876-.193-7.689z" class="S"/><path d="M98.916 208.598c-.102-.762-.252-1.215-.1-1.367 1.152-1.156 1.161-.033 1.167.684l.038 15.665c-2.324-4.4-.232-9.562-1.106-14.982z" class="Z"/><path d="M87.185 191.361c2.141-.318 4.475-.377 6.79-.202s1.89 1.29.356 2.676c-1.335-4.06-4.974-.674-7.146-2.474z" class="M"/><path d="M213.527 97.1c-1.816 1.576-4.318.684-7.092.926-.062-4.67 3.346.7 4.571-1.488.096-.172 1.406.337 2.521.562zM86.922 141.639c-2.553.364-5.259.37-8.416.37 2.25-2.719 5.346-.63 8.416-.37zm143.87-44.067c-2.058.299-4.217.243-6.56-.165 2.08-2.347 4.233.233 6.56.165zm-9.212-.611c-1.121 1.959-3.108.705-5.194.427 1.415-.289 3.096-.329 5.194-.427z" class="Z"/><path d="M124.452 107.919c.594-1.331 1.831-.741 3.235-.29-.806.257-1.829.294-3.235.29zm-5.835 42.105c.818 1.392-.133 2.2-1.511 2.965-.262-1.192.289-2.124 1.511-2.965zm10.846-42.139c.531-1.036 1.806-.649 3.267-.888-.313 1.794-1.814.598-3.267.888z" class="C"/><path d="M111.961 270.403c1.173-.688 1.587.128 1.989 1.371-.724.049-2.105.656-1.989-1.371z" class="S"/><path d="M114.606 155.047c.744.799.511 1.658-.192 2.686-.237-.732-.189-1.65.192-2.686z" class="C"/><path d="M123.548 102.1c-.398 1.123-1.324.846-2.417.085.589-.218 1.32-.169 2.417-.085z" class="G"/><path d="M120.977 107.333c.515-.214 1.141-.116 1.873.29-.516.213-1.14.117-1.873-.29z" class="C"/><path d="M128.715 102.053c.163.708-.117.903-.68.257.01-.239.459-.312.68-.257zm-2.994-.102c.417.716.086.863-.613.391-.053-.257.388-.358.613-.391z" class="G"/><path d="M223.138 96.74c-.073.317-.304.402-.876.345-.137-.651.035-1.238.876-.345z" class="Z"/><path d="M121.011 101.671c-.133.334-.352.397-.902.376-.056-.49.052-1.237.902-.376zm6.097.039c-.09.315-.31.378-.858.335-.141-.63.007-1.235.858-.335z" class="G"/><path d="M88.697 197.032c.116.337-.045.653-.491.937-.119-.34.048-.65.491-.937zm-1.035.937c.166.298.056.646-.351 1.009-.173-.31-.05-.635.351-1.009z" class="L"/><path d="M119.714 148.932c.128.296-.013.675-.477 1.039-.146-.328.031-.642.477-1.039zm-4.003 4.942c.127.27-.005.667-.467 1.078-.151-.307.029-.63.467-1.078z" class="C"/><path d="M234.067 288.617c-6.28 2.369-9.738-1.814-13.747-5.329-1.548-1.664.365-3.029.411-5.005.163-.574.245-.798.48-1.342 1.842-4.57.388-7.096-4.11-7.095-3.648.001-7.315.609-10.778 1.792-3.332 1.138-4.156 3.828-2.451 7.782.734 1.24 1.022 2.226.785 3.7-3.6 2.442-7.266 1.78-10.126-1.412-2.569-2.867-2.518-7.029.812-10.338 4.971-4.94 10.59-9.143 16.975-12.147 12.189-5.733 25.035-8.914 38.489-9.696 8.827-.513 17.057 4.223 19.787 11.516 2.237 5.976.196 10.456-6.102 12.468-2.435-1.835-1.762-4.343-2.191-6.538-.813-4.156-3.668-5.405-7.177-3.084-1.386.917-2.437 2.199-3.424 3.527-1.898 2.555-2.171 4.774 1.215 6.336 1.802.831 3.137 2.4 5.162 3.516-.235.354-.687.425-1.796.303-.658-.194-.92.169-1.101.3-2.9-.025-3.681 2.004-4.84 4.122-1.906-.642-3.403-.58-4.981.313-2.871 1.626-5.922 2.829-9.257 3.047-2.056.134-2.489 1.174-2.034 3.263z" class="T"/><path d="M147.334 293.042c-.37-1.84 1.994-2.268 1.623-4.391.155-.787.471-1.091 1.304-1.219.753.094 1.148.213 1.519.407.022.011-.008-.238-.204-.913.609-3.008 2.491-4.612 4.637-5.976 15.762-10.012 26.134-24.557 32.939-41.445 3.436-8.528 5.005-17.866 5.38-27.304.532-13.404-.945-26.56-3.533-40.053 1.665-4.141-1.047-8.035.728-12.069.687.427 3.827-1.813 2.015 1.618-1.144 2.165 1.911 4.007 2.599 6.404a116.92 116.92 0 0 1 4.572 33.034c-.029 6.622-.35 13.263-.19 19.846.086 3.521-2.281 5.819-2.237 9.127.122 9.01-5.795 15.928-8.823 23.863-4.433 11.62-12.1 20.46-22.093 27.678-1.36.982-4.541 2.274-3.572 5.541.129.435-.903 1.747-1.417 1.758-5.377.116-9.746 3.649-15.248 4.096z" class="U"/><path fill="#8e9397" d="M221.443 277.67c.676 2.091-.537 3.472-1.396 5.365-1.572 2.37-3.163 3.369-6.089 3.482-1.785.069-5.449-1.438-6.678 2.391-.204.635-3.234 1.161-4.308.565-3.027-1.68-6.629-1.407-9.494-4.121-5.502-5.213-6.656-10.73-1.396-15.893 6.14-6.027 12.98-11.329 21.132-14.495 11.599-4.505 23.319-7.71 36.055-8.225 10.261-.415 17.846 2.013 23.547 10.455 3.591 5.317 3.803 13.212-1.637 17.213-1.623 1.194-2.088 3.642-4.732 3.793-3.209.967-3.324-1.102-3.467-3.497.231-.734.377-1.01.896-1.566 5.92-2.229 7.922-6.385 5.737-11.409-2.969-6.825-9.51-11.017-17.042-10.672-20.389.932-39.168 6.349-55.019 19.902-2.752 2.353-5.001 5.308-3.192 8.576 1.841 3.326 5.373 5.182 9.834 3.599 6.163-.905 11.864-2.275 17.25-5.46z"/><path fill="#5c7b76" d="M263.836 118.193c2.033 1.501 2.718-2.417 4.936-.528-.328 4.88-2.815 8.706-5.345 12.36-11.771 17.002-15.467 36.281-15.547 56.371-.037 9.272 2.053 18.468 4.109 27.944-.46 1.502-1.107 2.364-2.63 2.757-2.203-2.331-3.536-4.775-3.38-8.154-1.478-6.885-3.138-13.375-3.514-20.482a5.81 5.81 0 0 1-.3-2.186c1.185-6.126.737-11.953.72-18.14-.045-.379-.016-.593.023-.694-.061-.335-.161-.569-.115-1.155.146-.352.212-.317.176-.323.251-.172.494-.388.86-.834.194-.383.224-.584.349-1.355.02-.729-.056-.888-.164-1.31-.145-.473-.258-.683-.213-1.214.157-.321.187-.259.153-.253 1.051-1.039.275-2.454.858-3.978.169-.346.098-.513.128-.598-.089-.361-.208-.636-.143-1.321.506-1.038.829-1.666 1.166-2.575-.096-.497-.206-.711-.172-1.259.143-.332.208-.271.168-.291 1.478-1.149 1.548-2.823 1.844-4.781.177-.718.152-1.142.176-1.883.317-.567.558-.842.881-1.394.111-.251.049-.593.107-.756 3.476-4.655 5.262-10.112 8.811-14.935.186-.299.212-.235.178-.239.893-.684 1.289-1.715 1.887-3.001.137-.596.268-.814.732-.971 1.208-.586 1.59-1.607 2.24-2.831.189-.26.148-.597.154-.766-.102-.383-.21-.597-.186-1.145.132-.334.155-.368.172-.38a.98.98 0 0 1 .882.301z"/><path fill="#a3a2a3" d="M221.796 240.815c1.287 1.673-1.815 2.754-.121 4.563.585.624-1.318.991-1.99 1.316-1.866.903-2.628-1.069-3.321-2.109-2.205-3.31-2.447-7.126-2.317-11.018.043-1.287-.058-2.387-1.365-3.736-2.108-2.175.272-4.3 2.084-5.866 2.152-1.86 2.815.308 3.047 1.59.37 2.039 2.035 1.289 3.044 1.837 2.496 1.356 5.326 2.351 4.071 6.368 3.06-1.384 1.78-3.61 2.05-5.378.278-1.818 1.442-3.336 3.07-3.274 1.395.053 1.84 1.817 1.947 3.363.174 2.501.567 4.995.918 7.471.357 2.524.053 5.844-4.531 4.441-1.53-.468-3.359 1.111-5.468.128-.653-.202-.988-.079-1.118.306z"/><path d="M249 217.376c.644-1.018 1.341-1.693 2.364-2.535 3.121-.272 3.909 2.112 4.792 3.89 5.741 11.561 15.74 19.069 25.473 26.743 5.238 4.129 12.105 4.231 18.324 5.86 1.91.5 3.971.458 5.913 1.975 1.261 4.783-2.653 2.809-4.721 3.808-.359.055-.615-.055-.754-.06-.405.107-.67.218-1.337.173-.402-.156-.721-.148-.873-.195-.616-.528-1.267-.529-2.121-.857-5.177-.105-9.744-1.654-14.715-3.201-12.852-8.313-24.231-17.607-31.16-31.714-.261-.237-.191-.26-.215-.232-.338-.423-.455-.94-.664-1.701-.175-.69-.213-1.151-.306-1.954z" class="a"/><path d="M300.964 257.51c.879-2.549 3.608-1.426 5.038-3.239.448-.844 1.041-1.063 2.014-1.169 1.142.041 1.962.174 3.103.091.729-.012 1.141.043 1.839.246 1.005.462 1.612 1.046 2.756 1.132 1.284.021 2.289.126 3.416-.702a5.59 5.59 0 0 1 1.165-.574c1.011-.196 1.671-.102 2.525.481.185 2.277-.748 5.174 3.522 3.156-2.924 9.767-8.101 18.611-14.055 27.036-.943 1.334-2.454 2.31-2.304 4.566-.104 1.455.297 2.508.195 3.893-.124.303.09.566-.018.697-2.168-.712-2.553 2.523-4.876 1.857-.038-3.562-2.302-3.19-4.933-2.947 2.141-3.452 4.688-6.836 7.423-10.499.083-.48-.022-.682.035-1.183.161-.3.537-.441.736-.411 3.942-4.851 6.732-10.327 10.188-15.791 1.584-3.929 3.162-7.14-3.676-5.634-3.147.694-6.84-1.945-10.234.927-.628.532-2.06-1.812-3.86-1.933z" class="V"/><path fill="#557d77" d="M192.024 159.591c-.314 4.055 2.109 7.743.523 12.007-3.303-1.772-4.026-5.424-5.399-8.475-4.052-9.006-9.047-17.369-14.894-25.307-2.633-3.575-5.531-6.561-9.595-8.451-2.548-1.185-5.172-2.49-5.693-6.12.206-1.196.388-2.026.799-3.08 7.22 2.403 13.599 6.061 18.191 12.049a162.79 162.79 0 0 1 11.756 17.557c.245.263.381.537.357.688.093.527.281.865.731 1.383.201.213.29.482.269.623.096.519.28.861.737 1.378.205.212.258.539.244.704.296.732.431 1.355.794 2.203.223.227.164.203.195.194.37.478.447 1.054.754 1.837.177.226.231.614.232.809z"/><path fill="#aed8d1" d="M249.985 221.437c.523-.191 1.436-.139 1.646.272 6.704 13.143 18.55 21.323 29.335 30.855-7.172.069-13.283-2.98-18.438-7.59-6.857-6.133-11.806-13.539-12.542-23.536z"/><path fill="#43484c" d="M264.295 272.42c-.046.436-.325.735-.317.939-.738 1.178-.875 2.456-1.943 3.578-.337.141-.517.19-.578.12-.387.062-.712.193-1.528.13-.867-.007-1.244.182-1.63.367-3.216-.354-5.303-3.144-8.389-3.847-.909-.207-1.471-1.259-1.553-2.355-.289-3.815 7.414-10.703 11.196-10.093 2.823.456 3.768 2.375 4.106 4.839.268 1.956.457 3.923.635 6.32z"/><path fill="#b5d2cd" d="M187.987 149.651c-1.571.778-2.191-.455-2.589-1.411-2.389-5.739-7.245-9.787-10.21-15.122-1.829-3.291-4.702-5.588-8.022-7.105-3.217-1.47-5.94-3.508-8.856-5.938-.091-2.238 1.259-3.024 3.559-3.079 10.706 9.399 21.209 18.611 26.118 32.655z"/><path fill="#909599" d="M234.142 289.01c-.552-1.639-3.551-1.674-2.603-3.853.866-1.989 2.912-1.192 4.452-1.21 3.847-.043 7.07-1.629 10.132-3.703 1.793-1.215 3.365-1.952 3.824 1.54-.045 2.843-1.62 3.824-3.816 4.385-1.786.456-3.496 1.206-5.62 1.839-1.479.831-2.788.296-4.24.828-.269.254-.258.184-.226.199-.19.117-.413.218-.966.161-.331-.159-.743-.113-.937-.186z"/><path d="M242.226 188.533c.525-.062 1.452.324 1.444.689-.142 6.242 2.776 12.109 2.267 18.871-3.422-5.624-4.743-12.148-3.711-19.56z" class="b"/><path fill="#dde4e9" d="M318.642 263.973c-1.689 6.004-4.325 11.725-9.533 16.073-1.076-1.933.098-3.286 1.032-4.564 2.764-3.782 4.562-8.252 8.501-11.51z"/><path d="M257.642 127.053c-1.233 5.583-3.882 10.701-8.265 15.006.816-5.896 3.388-10.943 8.265-15.006z" class="J"/><path d="M242.506 167.963c2.402 2.965 1.182 6.476 1.236 9.819.042 2.647-.581 5.304-1.203 8.044-.587-5.826-1.236-11.738-.032-17.863z" class="b"/><path d="M261.842 277.443c-.841-2.074.623-2.583 1.842-3.638.472 1.269-.254 3.084 2.106 4.099-1.088 1.369-2.519 2.027-3.948-.461z" class="B"/><path d="M247.697 146.095c.258 1.62.76 3.576-1.392 4.906.105-1.602.595-3.156 1.392-4.906z" class="O"/><path d="M262.695 120.065c.193 1.052.173 2.294-1.567 2.886-.159-1.083.244-2.091 1.567-2.886zm-3.019 3.796c.646 1.222.183 2.293-1.382 3.095-.549-1.282.154-2.156 1.382-3.095z" class="J"/><path d="M236.384 289.05c.254-1.698 1.819-.842 3.356-1.091-.344 1.712-1.833.786-3.356 1.091z" class="T"/><path d="M244.641 156.88c.765 1.167.62 2.499-.344 3.959-.25-1.142-.123-2.446.344-3.959z" class="O"/><path d="M191.044 156.641c-.719.074-1.041-.489-1.056-1.583.709-.021 1.072.488 1.056 1.583zm.982 2.034c-.817.157-1.072-.394-1.04-1.419.95-.235 1.134.346 1.04 1.419z" class="U"/><path d="M295.933 256.34c.5-.192 1.144-.073 1.942.347-.497.189-1.147.076-1.942-.347z" class="V"/><path fill="#aed8d1" d="M249.1 219.414c.78-.118 1.135.362 1.016 1.365-.958.167-1.176-.337-1.016-1.365z"/><path d="M298.803 257.364c.115-.337.381-.384 1.048-.371.15.65-.065 1.32-1.048.371z" class="V"/><path d="M264.08 118.129c-.334.378-.55.345-.938.032.086-.62.344-.959.947-1.281.266.291.187.565-.009 1.249z" class="J"/><path d="M299.72 292.028c.057.219-.152.526-.65.902-.065-.225.159-.52.65-.902z" class="V"/><path d="M234.888 289.28c.082-.301.304-.36.858-.324.138.598-.004 1.217-.858.324z" class="T"/><path fill="#dde4e9" d="M307.689 280.072c.341.18.401.382.367.883-.468.003-1.222-.113-.367-.883z"/><path d="M255.455 277.523c.388.213.609.572.83.931-.394.07-.788.14-1.235-.12-.053-.331.238-.665.405-.811z" class="T"/><path d="M259.59 277.301c.177-.39.503-.47 1.318-.433.04.602-.353 1.234-1.318.433z" class="B"/><path d="M244.694 154.84c.381.123.477.398.424 1.083-.59.069-1.419-.111-.424-1.083z" class="O"/><path d="M248.723 142.824c.155.257.062.674-.364 1.13-.183-.297-.034-.634.364-1.13z" class="J"/><path d="M188.972 151.748c-.269.038-.566-.23-.895-.819.267-.043.567.235.895.819z" class="U"/><path d="M245.641 150.994c.391.154.489.369.461.916-.608.08-1.32-.05-.461-.916z" class="O"/><path d="M190.01 153.736c-.318.058-.635-.203-.958-.797.316-.063.637.208.958.797z" class="U"/><path d="M262.62 117.997c.4.156.505.369.482.917-.631.092-1.319-.05-.482-.917z" class="J"/><path d="M243.648 160.955c.363.184.417.395.403.927-.614.088-1.293-.073-.403-.927zm.625 2.391c.001-.143.073.273.05.351s-.05-.208-.05-.351z" class="O"/><path d="M243.739 165.017c.09.258-.076.587-.524.928-.099-.278.085-.568.524-.928zm-1.124.923c.401.228.477.462.443 1.048-.64.034-1.316-.215-.443-1.048z" class="b"/><path fill="#7b898e" d="M336.222 366.377c1.329-1.277 2.808-1.497 4.206-.646 4.951 3.014 10.439 1.896 14.812-.034 4.429-1.955 9.736-3.638 11.679-9.744 2.513-7.901 3.575-14.806-3.348-21.224-9.637-8.934-20.558-13.204-33.792-11.842-6.323.651-10.197-4.338-8.772-10.337.285-1.202.786-2.194 2.544-2.409.533 1.468 1.022 2.956 1.46 4.235.823 2.404 1.862 4.642 5.769 4.343 10.102-.774 19.801 1.67 28.741 6.334 11.854 6.185 17.248 22.228 11.983 34.452-4.816 11.183-24.991 16.457-34.523 8.985-.436-.342-.497-1.161-.758-2.112z"/><path fill="#638583" d="M277.953 335.792c-3.616 6.835-5.925 13.931-5.998 21.706-.101 10.832 8.627 17.353 19.085 14.397 4.545-1.284 8.719-3.106 12.141-6.37 3.672-3.503 8.338-4.491 13.422-5.464 1.023.748 1.192 1.579.722 2.909-5.451 1.612-9.95 4.057-14.229 7.487-6.215 4.984-13.7 6.598-21.614 5.439-5.384-.788-12.709-8.622-13.38-14.718-.811-7.376-.108-14.663 3.513-21.372 1.293-2.396 2.777-4.642 6.337-4.014z"/><path fill="#7e8a8d" d="M397.519 325.025c.612 1.734.157 3.111-1.791 3.224-4.437.257-7.144 2.858-9.448 6.691-3.022-3.116-2.579-5.715 1.281-8.033 2.919-1.752 6.162-2.224 9.958-1.882z"/><path fill="#648b88" d="M317.575 363.319c-.482-.769-.527-1.594-.578-2.831 4.864-1.587 9.59-1.553 14.027 1.172.843.518 1.75.919 1.549 2.44-2.699 1.375-4.908.448-7.388-.625-2.127-.92-4.756-.817-7.609-.156z"/><path fill="#618881" d="M345.056 415.673c-2.984.041-6.367.32-6.827-3.365-.334-2.678.067-5.781 4.283-6.237-.489 3.567 2.333 6.167 2.544 9.602z"/><path fill="#a3d4cc" d="M394.071 362.766c-2.514 3.259-2.31.412-2.441-1.152 1.4-2.506-.516-5.046 1.419-7.45 3.193 2.22 1.096 5.348 1.022 8.602z"/><path d="M361.529 420.539c-1.058 2.195-2.961 2.834-4.668 3.757-1.874 1.013-1.53-.576-1.816-1.835 2.035-1.292 4.034-2.482 6.484-1.922zm-11.915-1.46c-1.231.807.51 3.437-2.105 3.763-.414-.392-.47-.811-.6-1.54-.084-1.956.83-2.506 2.704-2.223zm14.929-.1c1.163 1.452.204 1.721-1.365 1.9-1.005-1.356-.046-1.63 1.365-1.9z"/><path d="M365.088 289.55c.371-1.175 1.013-1.739 1.861-.016-.501.25-1.063.211-1.861.016zm-3.868-1.302c.578.009 1.105.281 1.773.831-.9.892-1.472.416-1.773-.831z" class="I"/><path d="M366.643 418.127c-.227.501-.755.92-1.491 1.062-.011-1.001.505-1.21 1.491-1.062zm-4.094 2.391c.209.876-.112 1.084-.878.504-.023-.282.211-.531.878-.504z"/><path fill="#9fdcd0" d="M156.649 122.758c1.601 1.426 2.621 3.286 4.159 3.951 13.945 6.037 18.843 19.53 25.589 31.31 2.321 4.054 5.12 8.232 5.86 13.541 3.749 14.649 4.83 29.221 3.648 43.803-1.379 17.009-6.092 32.961-17.477 46.431-2.527 2.99-6.056 5.613-6.698 9.997-.188 1.286-1.534 1.029-2.229 1.58-5.762 4.574-12.181 8.337-17.368 14.117-.315.471-.455.664-.888.651-.751-.164-1.21-.123-1.99.051-3.722.832-7.227 1.219-10.495 2.312-4.022 1.345-6.601-.097-8.99-3.137-19.174-24.407-27.958-51.924-25.027-82.991.202-2.146.248-4.306.352-6.916l3.294-14.422c-.859-8.324 3.052-14.564 7.713-20.837 3.547-2.937 5.156-6.816 7.33-10.265 7.378-11.71 17.302-20.872 28.317-29.006 1.515-1.119 2.962-1.406 4.901-.171z"/><path fill="#6e8b86" d="M361.004 145.998l2.816 18.892c-3.686 10.491-11.276 15.443-22.361 16.071-1.016.559-.985 1.184-.544 2.129.181.281.456.361.452.503-.874 1.346-2.104 2.041-3.784 2.687-3.797-.196-4.913-2.143-3.909-5.305.406-1.279.661-2.534.79-4.216 1.141-2.137 2.899-2.515 5.138-2.716 10.981 1.205 20.099-7.301 17.219-16.913-.703-2.347-1.143-4.873-.987-7.364.17-2.722 1.026-4.985 4.86-4.004l.311.237z"/><path fill="#7c8383" d="M336.681 186.025c.727-2.36 2.487-1.917 4.293-2.205 1.148.183.964.933 1.224 1.465.983 2.015 4.379 3.588 2.353 6.107-1.788 2.223-4.906 1.984-8.006.862-1.675-.129-3.024.192-4.587-.774-1.248-1.358-1.578-2.636-1.168-4.424 1.88-1.78 3.731-1.228 5.891-1.031z"/><path fill="#828988" d="M334.861 227.477c-3.844.967-2.278-2.495-3.624-4.249-3.05-3.884-1.726-8.017-1.604-12.39 1.328-2.736 2.682-5.033 3.43-7.925.524-.26.762-.299 1.329-.188.391 8.197.453 16.243.469 24.753z"/><path d="M334.792 202.441c-.071.434-.315.38-.432.424-2.449-3.589-4.074-7.406-2.824-11.984 1.67.124 2.952.362 4.441.933-2.098 3.37-.366 6.948-1.184 10.627z" class="S"/><path fill="#9acac1" d="M341.096 182.976c-1.109-.023-1.407-.706-.372-1.845.34.401.357.926.372 1.845z"/><path d="M310.386 292.852c-.95-1.229-1.666-2.321-.612-3.805 1.036.847 2.031 1.748 2.49 2.869.831 2.029-1.085.592-1.878.936z"/><path fill="#9edbd0" d="M331.346 208.572c-.32 4.726-.403 9.107-.433 13.95-1.595 3.849-1.298 7.683-1.491 11.163-.401 7.215-3.522 13.364-6.108 20.103-1.023.222-1.786.202-2.928.225-.575.192-.771.341-1.3.649-.817.254-1.307.307-2.171.324-1.357-.02-2.36.059-3.569-.675-.759-.264-1.218-.309-2.021-.316-.741.358-1.191.503-2.008.236-1.053-.247-1.799-.287-2.917-.292-4.445-.77-8.51-1.615-12.592-2.371-7.357-1.361-13.121-5.14-19.176-9.663-9.814-7.33-16.391-16.714-22.714-27.024-8.179-21.185-6.554-42.21-.853-63.359 1.451-5.382 3.939-10.143 6.634-14.878l10.959-18.569c.48-.146.655-.118 1.095-.092 1.147-.896 2.148-1.457 3.79-1.016 20.072 11.561 34.745 27.766 45.623 47.952 1.31.453 2.066 1.161 2.44 2.091 5.215 12.971 10.028 26.051 10.312 40.285.006.315-.202.628-.573 1.278z"/><path fill="#a0d3ca" d="M361.008 145.651c-3.446.255-4.292 2.197-3.77 5.184.399 2.278.603 4.62 1.276 6.816 3.226 10.525-8.53 19.823-18.476 17.497.427-2.117 2.057-3.14 3.488-4.774 3.822-2.835 6.853-5.802 7.428-10.497.72-5.884-2.47-8.669-8.037-6.71-6.063 2.134-9.92 6.406-11.425 13.143-.581.734-1.019 1.052-1.939 1.39-4.383-.569-4.257-3.049-2.841-6.344-.001-2.855 1.247-4.497 2.691-6.508 5.446-7.589 13.699-9.943 22.173-12.745 2.812.184 5.195 1.145 8.03.753 1.227.648 1.386 1.518 1.402 2.795z"/><path fill="#6e8b86" d="M359.891 142.681c-2.663 3.483-5.007.839-7.703-.38 1.258-2.31 3.579-.259 5.629-1.356 1.137.185 1.875.478 2.074 1.736z"/><path fill="#4b776f" d="M326.612 161.012c.882 2.04-1.389 5.104 2.922 5.912.755.323.979.74 1 1.595-2.359 2.361-2.478 4.608-1.16 7.301 1.592 3.253 2.497 6.717 1.754 10.744.229 1.4.543 2.465.826 3.867.319 4.184 2.417 7.7 2.21 12.074-1.96 1.87.925 5.406-2.732 6.369-1.178-15.108-6.537-29.074-11.817-43.469 3.731 1.04 3.977-3.696 6.998-4.393z"/><path fill="#40655f" d="M116.052 161.973c-2.446 6.6-5.616 13.028-7.606 20.342-.95.472-1.716.592-2.876.696-1.41-2.447-1.176-4.913-.136-7.188 2.313-5.06 2.232-9.781-1.309-14.274-.6-.761-.887-1.749-1.015-3.127 1.323-.379 2.626-.367 4.417-.396 1.547 5.525 2.244 5.885 8.524 3.947z"/><path d="M273.733 116.783c-.92.616-1.981.911-3.378 1.202-.198-1.061-.692-2.448.849-2.831 1.086-.27 1.798.491 2.528 1.629z" class="J"/><path fill="#a4d3cb" d="M102.859 157.961l4.686 6.007c1.997 2.624 2.277 5.318.733 8.305-1.595 3.087-2.325 6.466-2.961 10.305-3.701 4.579-11.109 5.319-16.246 3.43-7.471-2.747-11.087-8.494-15.598-14.48-4.114-5.461-4.406-10.943-5.173-16.694-.613-4.599 6.458-9.139 12.978-8.746 7.785.469 13.422 5.18 19.072 9.828.767.631 1.492 1.314 2.508 2.043z"/><path fill="#404449" d="M221.873 277.674c-2.079.454-2.608 2.122-3.449 3.534-.928 1.558-1.674 4.43-3.718.716-.447-.812-1.18-.323-1.565.221-2.371 3.349-5.228 1.753-8.385.733-.657-.896-.954-1.688-1.407-2.757-1.468-6.852 4.052-11.844 10.554-9.878 1.564.473 2.927 1.475 4.732 1.177 4.313-.712 4.816 1.681 3.78 5.419a6.6 6.6 0 0 1-.544.836z"/><path fill="#8e9397" d="M222.582 277.075c-.996-1.941 1.269-7.315-4.529-3.498-.87.573-1.937-.046-2.803-.556-6.311-3.719-10.698-1.424-11.909 6.493-3.264-3.36-2.249-7.635 2.422-9.044 3.604-1.087 7.394-1.834 11.146-2.091 5.38-.369 7.972 3.584 5.672 8.697z"/><path fill="#62827d" d="M151.069 288.096c.051-.193.218-.224.637-.292.116.319.061.803-.637.292z"/><path fill="#151515" d="M222.162 240.845c-.886-.056-1.244-.588-.876-1.21.374-.634.669.061 1.156.446.183.181-.098.593-.279.764z"/><path d="M313.081 254.433c1.006-.348 2.049-.355 3.478-.286.749.747.388 1.158-.357 1.704-1.351.159-2.625.46-3.121-1.418z" class="a"/><path fill="#5c7b76" d="M316.349 256.042c-.127-.454.117-.91.478-1.592.582-.276 1.047-.324 1.861-.331a2.43 2.43 0 0 1 1.125.65c-.599 1.491-1.894 1.226-3.465 1.273z"/><path d="M309.157 254.239c.292-.227.73-.238 1.496-.228-.097.696-.615.999-1.496.228zm10.874.533c-.284.144-.535-.016-.869-.426-.125-.186.35-.324.597-.307s.264.494.273.733z" class="a"/><path fill="#2e4441" d="M141.83 249.803c3.125-9.654 13.555-15.142 22.703-12.294 3.98 1.239 6.872 8.283 5.206 12.681-3.042 8.029-13.61 13.192-21.74 10.621-5.656-1.789-6.66-3.499-6.169-11.008z"/><path fill="#9acac1" d="M331.459 186.884c-1.756-4.802-2.372-9.803-4.865-14.322-.98-1.777.843-2.863 2.882-3.363 2.78 1.843 4.044 4.489 5.385 7.488.746 1.763 3.402 2.807.015 4.744-2.313 1.322.343 2.91 1.819 4.232-.947 2.655-3.117.819-5.236 1.221z"/><path fill="#2e4945" d="M335.234 176.763c-2.828-1.491-4.391-3.968-5.406-7.207l.145-2.272c.038-.693.196-.952.625-1.291 2.283-1.249 3.353.219 4.063 1.685 1.344 2.777 2.678 2.428 4.923.836 3.216-2.28 4.204-1.692 4.75 2.446-.96 1.944-2.38 2.867-4.249 3.748l-4.851 2.055z"/><path fill="#192422" d="M296.832 214.534c.706-.182 1.066-.206 1.691-.176 1.585 1.419 3.166 1.283 5.122.905l1.825.194c5.883 3.999 5.638 11.989.278 15.883-5.32 3.865-11.538 4.756-17.551 6.238-4.673 1.151-8.917-4.677-7.909-10.065 1.688-9.023 8.743-11.147 16.544-12.979z"/><path d="M296.756 214.241c-2.182 2.027-5.476 2.888-8.338 3.984-4.632 1.773-6.226 6.242-7.148 10.614-.8 3.792 1.936 5.947 4.985 7.554.417.22 1.042.561 1.345.406 5.936-3.052 13.08-2.883 18.606-7.052 3.124-2.357 3.092-8.654-.325-13.898 2.444-1.341 3.474.044 4.202 2.251 3.058 9.275-4.424 20.762-14.193 21.684-.989.093-1.991.056-2.987.054-9.431-.018-13.529-2.788-14.183-9.583-.613-6.366 5.807-14.468 12.654-15.82 1.612-.318 3.305-.23 5.384-.195zm6.948.802c-1.108 1.344-2.48 2.406-4.152 3.701l-.731-3.986c1.558-.767 3.103-.578 4.883.285z" fill="#4b6d68"/><path fill="#4a6a65" d="M344.502 171.166c-.623-2.467-1.212-4.414-4.139-1.809-4.375 3.895-4.385 3.883-6.857-1.3-.429-.9-.928-1.736-2.353-2.103.639-7.798 7.575-14.371 15.189-14.914 3.075-.219 4.741.672 5.561 4.073 1.769 7.342-1.61 12.015-7.402 16.052z"/><path fill="#3a5752" d="M95.297 166.644c.703 2.352.791 4.33.808 6.309.026 2.981.737 5.297 4.436 5.078 1.017-.06 2.105.083 2.061 1.463-.039 1.236-1.127 1.474-2.073 1.776-2.158.689-4.272.341-6.325-.383-4.493-1.585-9.005-3.132-13.424-4.907-2.493-1.001-2.172-3.776-3.078-6.177 1.046-6.747 3.51-12.24 10.072-15.108.338.148.337.25.361.204 1.194 2.473 0 5.955 3.368 7.957.754 1.447.864 2.639.409 4.208-.841 1.982-2.251 3.208-2.935 4.94 1.652-.207 1.392-1.713 2.086-2.975.933-1.659 1.744-2.934 4.235-2.386z"/><path d="M87.915 154.522c-4.306 1.529-4.046 6.614-6.782 9.418-.884.906-2.575 2.877-3.358 5.124-4.278-4.562-4.375-7.68-.554-12.851 2.879-3.896 6.468-4.107 10.694-1.69zm3.116 8.595c-5.16-1.09-4.328-4.215-2.976-7.879 5.981 2.503 10.616 6.888 14.587 11.977.974 1.248 1.46 2.949 1.902 4.517.351 1.246.539 2.812-1.295 3.18-1.512.304-1.822-.938-2.23-2.083-.861-2.417-1.156-5.29-4.707-5.938-.368.124-.315.107-.319.135-1.484-1.341-3.073-2.58-4.962-3.91z" fill="#557973"/><path fill="#87ada5" d="M153.984 253.937c2.1.393 3.048 1.637 2.569 3.221-.414 1.368-2.182 1.382-3.402 1.696-1.24.319-3.346.533-3.654-.617-.85-3.17 2.034-3.467 4.487-4.299z"/><path fill="#95c0b8" d="M342.824 156.904c1.062-2.615 2.404-2.609 3.129-.365.498 1.541.777 3.442-.745 5.23-1.72-1.069-2.069-2.74-2.384-4.865z"/><path fill="#557973" d="M91.886 168.837c.159.749.155 1.24.176 1.729.106 2.476-1.689 3.34-3.535 4.125-.786.334-1.811.44-2.002-.574-.338-1.796 1.026-2.994 2.005-4.27.484-.631 1.088-1.171 1.966-1.822.751-.036 1.061.162 1.39.813z"/><path fill="#a4d3cb" d="M92.188 168.768c-.435.091-.719-.145-1.183-.598-.18-1.577-.18-2.938-.242-4.703 3.462-2.149 3.956 1.114 5.293 3.232-1.547.122-2.98.017-3.867 2.069z"/></svg>